<mxfile host="app.diagrams.net" modified="2023-08-07T18:59:54.424Z" agent="Mozilla/5.0 (Macintosh; Intel Mac OS X 10_15_7) AppleWebKit/605.1.15 (KHTML, like Gecko) Version/16.5.2 Safari/605.1.15" etag="YsKwOBcL4t21NOsvyZeg" version="21.6.6" type="device">
  <diagram name="Page-1" id="ShAAbERFFbp9uMP3w6r3">
    <mxGraphModel dx="1367" dy="830" grid="1" gridSize="10" guides="1" tooltips="1" connect="1" arrows="1" fold="1" page="1" pageScale="1" pageWidth="1169" pageHeight="1300" background="#ffffff" math="0" shadow="0">
      <root>
        <mxCell id="0" />
        <mxCell id="1" parent="0" />
        <mxCell id="vCd6vIvfis11NrJTEesd-21" value="" style="shape=image;verticalLabelPosition=bottom;labelBackgroundColor=default;verticalAlign=top;aspect=fixed;imageAspect=0;image=data:image/webp,UklGRvYMAABXRUJQVlA4WAoAAAAQAAAAKwEAKwEAQUxQSF4DAAABoFXbVh3bQgISkICEKQEJSEDCdIAEJCBhSkACEpDAR6WSqr0Tcu4zETEB5vH/bXbYHXk8Yf+dsgAiyazXMX9xk6RKkgHAnQAiWaUxT71LhQzwi+aRWNXnBUuZEW6REFg05gI2ZcKtCyLV53K2yuDXwgXWPpe2FcIugAvUmIvcK2EvywZqzOXuNeFyfCp9LrxycBdhQY15A3tJ/uRsyG3eyVGJswqlzVsq+jPSvK16/Pf47/Hf47/Hf//tMPQz2+2SJJJMeHXml2KTJLOkdiuGlMkAOHPiHohklVZtqJKANZfrEEhplbpIePMLPb7qftBOBBaNdVFh8ObbHkAkyaLN+fO7NvkaALjPvUWk+lr0yuDNxy0QySr1edqSMhmAj2wjUmMBWkkwn3UIzNKYF9tVSeDYpgNrv6xWEswnPZjV5uVLTHAHNi2ocTFDhDXHEak+F1OVwe/bdDHrIlqJzhx2gepzYVsh7K5NpDrOTYQ1R33MmmvcxeB2vbpY2kkFb466kDVXu1fC7nm1IZ7RQbCOueytRL/n5F3Imus/KnF6LpY+b6QY7Fn5VMe8oS0He0aat1WP/x7/Pf57/Pf47225LSOfkbEh63aMmrw5cVDjLvQSvblAn0pfvZaDMxdqA7VovRLm/HMObs+mj1lLNcTgzFGfaj0jzTl7SX7Xpo9ZCzTE4MxRC2rOOXVWm2KwuzZdYG2rokJYc9jH0ubbc3vtJWHftg8sWoiuTDhz3IIac/f5bbYc/YFti8CifmUSCW8+acHa5/GL2FRJOPLeAmSVLmNImQkwH3Zg7fPDV7LZxeCP7bVAIFkljXPpkgqZAJgvWqSsMb95OdtNjLAfOWzxGrmtj/bZ9MHC7YBX8xMdUtaY37+ot6pM8F+5QIBUmz/22t4OiYzAhVggMavNH78Ee4dUSQLwp2MBRJKS5i9ejMN6zdzEXvs5j52Rm1WS+jzNtVnPx3+P/x7/Pf57/PdnJpR2T0R/RsYYG3K7FaMS5uRBjTvQS/LmIn0qfeWUgzMXa0GN9eo1wVy2C9RYpV4Ja67fBda+Nq0Q1iwlItXXo1UGb5bVBxaNFWjKhDNr7JFY1a+oKTPCmTUHIlmlcW5NKmSAN/fRAogkqdfxm5okVZIMAMyNdtjP4wn7zaN7VlA4IHIJAAAwQQCdASosASwBPp1OokulpKOhp3W4sLATiWVu/D64MuQDPJVV4XRadvi+fG5jf4XcD/YL3cbbP+V+hr+c/5L1/fR9/9Mim9bbz2NR68d9nGPXGMOFct/YJZ5/qPQC9g/lPpGzOPu5gn+i88Pn6VEOi16ABDz6ngsCZm8IDvyzraWQ/4+MoznnK7jNeCfj+BLE4miWbHnfi5Qbv/3hEpL0GP1kLZMqVUIatNzttYSJTa8MAq5Q96/0rqOZqJj5p2aXTF+kpg9v7IdLvkfjnKStwx1PAUHoz55CBkGQeRtRVTtauEDIMhAejPnejgJ7G8p5d0ySzoj4F7LXqJkCxIUynolzS2/bO50SVp3+HBnaezVLD+TFsGBAxdhjGi6xBuibGGaD6QsUZRHzVn3e+ePDnJUQzJJ3pWph2Uy+3VVrkXhSEDIMf/9LZtaCQG2CStwuufXogWD9fcYLjIQMFUoRulhqIWoSSDjJcpzoaBSKOcuVLVqZvMELJtzVcHHvN9vuuKZZKQlvkSBh1KKof5SOhnejAFTuOpgHUOuBniZMtSyiApThnNqMXq8Va6GBG5ISCspK3C659ejjair8IGQY//72Yi2HmmGph2Uy+3VUZnpHvr//3aVhO/AuAdQFGXW+bSaBXCf6nxrU4/eL0ZPVPtU7rfpaK07N8MuwDQ4HXHSVs0yP9bxOE2HHK7/m4wzxsAD+/hK+1GU2NgLYSVJNZGlI4JRVRt9e8hNSCWqf+6niO7/LqkLqbyQppXlzsnYTkmjdxoCE74yqQx2+rRmCwytq9BXK2ogq+Uqe2RiIVFrn6I6Css+ixm6+h+aPcDle87kLD8zXP+TLkA/3Oj8BW5R5wygXxPma0H/pUvKU5bID0VbPDn/z8bUkbIiyedqLFyQy3e0nCWr+Q8btHoGdn/9YX5AYyE9mNG4TZRDEm2xvmQcb2apJJLf71/j1Ol4IjHPR4UypgA/PDHa5b9+OKLYmewulF3OJSgoGukAffGVPQTj6DYpBi1wtkbmn43r4ju5TMWZW/dxGgRD7xEF84Im5/kVmJ4RXZ/PUEOxd6YlfPwc9GjsXBonzUZepoJK0bF2TwB2EJQJdsCv+tFDkjD01NRT75XYHnVI95yJcWU+qqnJAEZowKnPTnTVKUG6jj8pUTg7bLHCXAlq2iS1cZmZXGLViy8yd0iMpWuqskivNDlK9RgAAAdal6V+4FnMtOsW2liLQCpDUUhR0BDwfhQObjBdqnf6GaRmfhBVUR3fGgLQdkdndI/O339Rx+f0mVbzFGcUwkllrnLRUMIfLTjEr++tf82H5Cbn+83wv08QuODuwR61erwTo+HPAVgCHc+WFOGjZewTKAQRxJBFnoEajYDPQ2KZ47yZLPlB7vLsfNnzBLr5mbc5s2Yi9+r6ZgITf8EKfc6165EqdROJWUDCfhJ8BB76R88Trp19kodVWDnCggFvoeoQTIVNQQrKdrK9JpvjUBE1BWlJG1TxeAlSFaYDYA7JoaCKD+MVnd2b5U972m4K8oB0hUc8N+Ucz13+A6O0KmhWTSdRPX25i3P+1tgxTD3mUxlTzKOz2AlO3HIcQxfNUtZUW+P8jdSw4fBlmgXY6cVI/ou9JYZDJx8zhNX9Cj7Ji8CdFdeD4FkqlQwt1lYYwE8o6qWkTOckCRczCQM3MERHwhjPOlSZBCYQbraYQi7oKAqAVsAeudF6BOXUSg8N9xLOVc3nSTjcIYu9J6mpx8TtZmgFC+6D0LFkrdl1uBdAwWAdOd3WeuVWio1vNLcvCyt5Sr69YQI+KOuEd3hDpZhSWgmX2CUNd2iC6ZH6G27FZTgXVoVCulYO/xSX0W1LbtRovyNWtpnWT91Tq9RchEADPZ9lAAAB2V2wZ9ARwer4V1wkDm5WUDGAmOoyb6S9DMg/b3AvQ7NfFmYt+IqDg9Wh/nrS3Q7kvFtJF8985WSDIu/9S/rPL4IRau15cGovsq/+EFRdSKAfnfSPcH4mQwdXsgVB/cW36igl5JS0qoCNtwg/cofcN6BpDYbm3egHp3s1PyZUjhA2RcrsQVkqkkpMXITSo+zpEOUyiOdwguVhsT9HfUAG08ARVcdreMq71fkA/eDRMnfImjkhP5ID7jQGWFhJzRwrmchCRO88yrs70PMob7W7bqcmZSB3SqRA2zB35yUCcpnyv8/KeA5iQulmE1h5GtaCp85IT5cKh23HNRe2p3/Sf4DqASvUyOhz8SqYIh/0vqbkpyZEyAyH8AoNIcRKILclNvRhdAKYiWDR4zHxe40Zwe0x8NNMu7b5Q04iL7hViyPjwESOO8vP0uXrogLUmsIfkHiwGPMfEJ4e4FOGyKUF9UdrwMQreE7XIbL1l9701C3oJU4t/0BvbENxGA5PEWkgjUuJ7muEZsG2yLHga1525DqmU1uA5sJVTpjrKdp2qKREWBXUM1QANTeYocIwgdU2OkRYPTU2mQQneSfhOg94JCAtrcUKp8joLkFiBtrEUyotYmt2GxgyjpWThlH5WnsBN6/O2ZTqS4b3B3+r8TRnhpbahD0Hc+CUbB9sfrKZMfNSqdpx+IfxJ1GGB6bOGbJp9X7YyWj19E4p7nnBfo1Y9ykOsp+Ajo0qMsfi2qqhuVHmDop2ie/cuwE7djor6aPDG9daq5R+zmuJ2kvAP8fMmXIqAYvOn/CfrNIPGHMvSo4cu/1RbkxlvsibFGWjSC5lt/moTxf+BLSH0T5t9O7pYyCfqVo47oa1TgyeTjnvNhh/DmkPGH/h2HQzdvjkAtdyWLrZx7vw1UKAAcDmyhGEBVBXUM476BZE4X/kl4ow4iPqLEds85jDAIf1Cz9x1Fc8OpTGbbyyTXL4jWABbv3wYng9lhRO8K7HfAmQLrpzxWN4K8WpaP0QG2tRiiVraiu2dhOvoVQs9wM8guh5KhzhaS/Gi2Y/SWkci0hmVBxl/quIsq582qqVEzxztThkWzLqNXHqBN1p/8ULLiCgKmLIcx02Uxu5fZXEZUQEf4ZALWw7orpybN8VkmxH3PTlzVt6f74nDAhHk46sCEbYBV4Va5d/QO0ca2LbMjAlASyYhyjX2OmgZjCFtKDluLpgiNy9An4d7CE+aTX+rmekRLyRwOMAn+K4DaDP80qe/EUO3zMnTnB7IHXzOUgMIqqGNZKp7t2oL4j2Qh6RPhy4gwcQ5bUCzVOqw7tUnoRqES5eXNgxK9A8wAACrjCyy+x66oAAAAAA=;" vertex="1" parent="1">
          <mxGeometry x="835" y="980" width="70" height="70" as="geometry" />
        </mxCell>
        <mxCell id="vCd6vIvfis11NrJTEesd-27" value="Container" style="swimlane;fillColor=#dae8fc;strokeColor=#6c8ebf;" vertex="1" parent="1">
          <mxGeometry x="743" y="800" width="297" height="170" as="geometry" />
        </mxCell>
        <mxCell id="vCd6vIvfis11NrJTEesd-80" value="" style="shape=image;verticalLabelPosition=bottom;labelBackgroundColor=default;verticalAlign=top;aspect=fixed;imageAspect=0;image=data:image/svg+xml,PHN2ZyB4bWxucz0iaHR0cDovL3d3dy53My5vcmcvMjAwMC9zdmciIHZpZXdCb3g9IjAgLTIwLjUgMjU2IDI1NiIgaGVpZ2h0PSI4MDBweCIgd2lkdGg9IjgwMHB4Ij4mI3hhOyYjeGE7PGcgZmlsbC1ydWxlPSJldmVub2RkIiBmaWxsPSJub25lIj4mI3hhOyYjeGE7PHBhdGggZmlsbD0iIzM2NDU0OCIgZD0iTTM4LjYxNyAxNzMuOTg0di0xNi4zNjJjMC0yLjE1IDEuMzQ0LTMuODc3IDMuNTctMy44NzdoLjYxNmMyLjIyNSAwIDMuNTYzIDEuNzI5IDMuNTYzIDMuODc3djM0LjQ0N2MwIDguNC00LjE1IDE1LjA4NC0xMS4zODIgMTkuMzQyYTIxLjM3NCAyMS4zNzQgMCAwIDEtMTAuOTQ1IDIuOTg1aC0xLjUzN2MtOC40MDIgMC0xNS4wNzctNC4xNTMtMTkuMzQyLTExLjM4YTIxLjMxNCAyMS4zMTQgMCAwIDEtMi45ODQtMTAuOTQ3di0xLjUzNWMwLTguNDAzIDQuMTUyLTE1LjA4MyAxMS4zNzgtMTkuMzQ5YTIxLjI5OCAyMS4yOTggMCAwIDEgMTAuOTQ4LTIuOTg1aDEuNTM3YzUuNjg2IDAgMTAuNTEgMi4yMDQgMTQuNTc4IDUuNzg0ek03LjkyNCAxOTEuM2MwIDYuMDY4IDIuOTQxIDEwLjYzIDguMjU4IDEzLjU0IDIuMTUgMS4xNzYgNC40ODQgMS44MDggNi45MzcgMS44MDggNS45NTYgMCAxMC4zNzQtMi44MSAxMy40MjEtNy44NTcgMS40MTctMi4zNDggMi4wNzctNC45MTcgMi4wNzctNy42NDggMC01LjI2LTIuNDktOS4zNjUtNi43MjktMTIuNDE0LTIuNTctMS44NDgtNS40NjMtMi43NzUtOC42MTgtMi43NzUtNi40OTIgMC0xMS4xNjQgMy4yOC0xMy45NjggOS4xMDYtLjk0NiAxLjk3LTEuMzc4IDQuMDYxLTEuMzc4IDYuMjR6bTY1LjMyNC0yMy4xaDEuMDc0YzguOTc4IDAgMTUuODA2IDQuMzU1IDIwLjEzMyAxMi4xOTIgMS43MyAzLjEzNSAyLjY1NiA2LjU1NyAyLjY1NiAxMC4xNDJ2MS41MzVjMCA4LjQtNC4xNDIgMTUuMDkzLTExLjM4NSAxOS4zNDMtMy4zNTMgMS45NjctNy4wNTcgMi45ODQtMTAuOTQzIDIuOTg0aC0xLjUzNWMtOC40MDIgMC0xNS4wNzktNC4xNTMtMTkuMzQyLTExLjM4YTIxLjMxNiAyMS4zMTYgMCAwIDEtMi45ODctMTAuOTQ3di0xLjUzNWMwLTguNDA0IDQuMTY5LTE1LjA2MiAxMS4zNzctMTkuMzQ3IDMuMzUxLTEuOTkxIDcuMDU4LTIuOTg3IDEwLjk1Mi0yLjk4N3ptLTE0LjU4IDIzLjFjMCA1Ljg5IDIuODkgMTAuMjIzIDcuODY1IDEzLjI3IDIuMzM2IDEuNDMgNC45MDkgMi4wNzggNy42MzggMi4wNzggNS44MiAwIDEwLjEyMi0yLjk1MSAxMy4xMTYtNy44NjMgMS40MjgtMi4zNDIgMi4wNzQtNC45MTUgMi4wNzQtNy42NDIgMC01LjQ3Ny0yLjYzOC05LjY2MS03LjE0OC0xMi42OTMtMi40NzEtMS42NjMtNS4yMjItMi40OTYtOC4xOTgtMi40OTYtNi40OTIgMC0xMS4xNjQgMy4yOC0xMy45NjcgOS4xMDYtLjk0OCAxLjk3LTEuMzggNC4wNjEtMS4zOCA2LjI0em03MC42NTYtMTQuNzI3Yy0xLjE3LS41NDgtMy4zNi0uNzMtNC42MjQtLjc3OC02LjQ3NC0uMjQ0LTExLjE1OCAzLjQwMi0xMy45MDYgOS4xMTMtLjk0OSAxLjk3LTEuMzgyIDQuMDU1LTEuMzgyIDYuMjM1IDAgNi42MzcgMy40ODUgMTEuMjg0IDkuNDA5IDE0LjExNyAyLjE2NCAxLjAzNCA0Ljk1OCAxLjIzIDcuMzIzIDEuMjMgMi4wOCAwIDUuMDItMS4yNzQgNi44NjYtMi4xNTFsLjMyLS4xNTJoMS40MzNsLjE1OC4wMzJjMS43NjIuMzY3IDMuMDkyIDEuNDg0IDMuMDkyIDMuMzh2Ljc2N2MwIDQuNzE4LTguNjIyIDUuNzk4LTExLjkxMiA2LjAyOC0xMS42MS44MDMtMjAuMjkzLTUuNTczLTIzLjYwMy0xNi42NDctLjU3NS0xLjkyMy0uODM0LTMuODMzLS44MzQtNS44Mzd2LTEuNTMzYzAtOC40MDMgNC4xNy0xNS4wNTkgMTEuMzc3LTE5LjM0IDMuMzUxLTEuOTkgNy4wNTctMi45OSAxMC45NS0yLjk5aDEuNTM2YzQuMTMgMCA3LjkzNCAxLjE3MyAxMS4zNDQgMy41MDJsLjI4LjE5NC4xNzcuMjkyYy4zNjguNjEuNjg1IDEuMzE2LjY4NSAyLjA0MnYuNzY3YzAgMS45NzgtMS40OCAzLjA0Mi0zLjI2NiAzLjM4NmwtLjE0OC4wMjZoLS40NThjLTEuMTU2IDAtMy43ODUtMS4xOTctNC44MTctMS42ODN6bTI1LjEzNCA1LjI0N2MzLjAxLTMuMDE0IDYuMDMtNi4wMjIgOS4wODUtOC45ODYuODUxLS44MjcgNC4wNzQtNC4zMjcgNS4zNDMtNC4zMjdoMS4zODhsLjE1OC4wMzNjMS43NjguMzY3IDMuMDkyIDEuNDg2IDMuMDkyIDMuMzg2di43NjZjMCAxLjI5Ni0xLjUxOCAyLjgwMi0yLjM1NSAzLjY4OS0xLjc4IDEuODg3LTMuNjU0IDMuNzEyLTUuNDc2IDUuNTZsLTkuMzYyIDkuNTA0YzQuMDMxIDQuMDQgOC4wNTggOC4wODMgMTIuMDU2IDEyLjE1NGEzMTMuMzA0IDMxMy4zMDQgMCAwIDEgMy4zMDEgMy4zOTZjLjM4NS40MDUuOTUzLjkwOSAxLjI3NiAxLjQ3LjM0Ny41MjYuNTYgMS4xMTkuNTYgMS43NTJ2LjhsLS4wNDUuMTg1Yy0uNDM1IDEuNzY4LTEuNTU3IDMuMTk0LTMuNTE2IDMuMTk0aC0uNjE3Yy0xLjI4MiAwLTIuNzMtMS40NS0zLjYwOC0yLjI3OS0xLjgxLTEuNzA2LTMuNTU3LTMuNS01LjMzMS01LjI0M2wtNS45NDktNS44NHY5LjMzNGMwIDIuMTUtMS4zNDYgMy44NzgtMy41NjkgMy44NzhoLS42MWMtMi4yMjYgMC0zLjU3LTEuNzI4LTMuNTctMy44Nzh2LTUyLjU5NmMwLTIuMTUgMS4zNDUtMy44NyAzLjU3LTMuODdoLjYxYzIuMjIzIDAgMy41NjkgMS43MiAzLjU2OSAzLjg3djI0LjA0OHptOTYuNTc3LTEzLjMxM2guNzdjMi4zMjQgMCAzLjg3NSAxLjU2NiAzLjg3NSAzLjg3NyAwIDMuMjA4LTMuMDY3IDQuMDI5LTUuNzIgNC4wMjktMy40OCAwLTYuODAzIDIuMTA3LTkuMjAyIDQuNDctMi45OTEgMi45NDktNC4zIDYuNzI2LTQuMyAxMC44Nzh2MTguNzU5YzAgMi4xNS0xLjM0MyAzLjg3Ni0zLjU3IDMuODc2aC0uNjEyYy0yLjIyNyAwLTMuNTY5LTEuNzI1LTMuNTY5LTMuODc2di0xOS44MzZjMC03LjYxNyAzLjcwOC0xMy44MzUgOS44OS0xOC4xOTYgMy42OTEtMi42MDUgNy45MTktMy45OCAxMi40MzgtMy45OHptLTU1LjA3NCAzNy4xNzZjMi44Mi45ODUgNi4wMzUuODQ0IDguOTI4LjM0IDEuNDgtLjYyOSA1LjI2NC0yLjI4IDYuNjU2LTIuMDM4bC4yMTcuMDM3LjIuMDk4Yy44NS40MTIgMS42NjEuOTk1IDIuMDk1IDEuODYgMS4wMTQgMi4wMjcuNTI3IDQuMDY1LTEuNDY1IDUuMjE2bC0uNjYzLjM4M2MtNy4zNSA0LjI0Mi0xNS4xNjggMy42NTQtMjIuNDk1LS4zMDgtMy41MDMtMS44OTQtNi4xODMtNC43MDUtOC4xNi04LjEzMmwtLjQ2Mi0uODAxYy00LjcxOS04LjE3Mi00LjA4Mi0xNi43NjggMS4yNC0yNC41MzkgMS44MzctMi42ODYgNC4yMzgtNC43NjEgNy4wNDUtNi4zODRsMS4wNjItLjYxM2M2LjkyMi0zLjk5NiAxNC4zNDEtMy43MjIgMjEuNDUtLjIxNSAzLjgyMyAxLjg4NiA2LjkyIDQuNjk3IDkuMDU0IDguMzk0bC4zODQuNjY2YzEuNTUgMi42ODYtLjQ1OCA1LjAyNi0yLjUzMSA2LjYyNi0yLjQwNiAxLjg1Ni00LjgzNSA0LjA5LTcuMTQxIDYuMDgtNS4xNDIgNC40MzktMTAuMjc2IDguODg4LTE1LjQxNCAxMy4zM3ptLTYuNjU1LTQuNjc0YzUuNzUtNC45MyAxMS41MDItOS44NjUgMTcuMjM3LTE0LjgxNiAxLjk2LTEuNjkgNC4xMDktMy40NDQgNi4wNTMtNS4yMjEtMS41Ni0xLjk2Ni00LjE2Ni0zLjM4My02LjM4LTQuMjI4LTQuNDctMS43MDMtOC44NzctMS4xMzEtMTIuOTc2IDEuMjM1LTUuMzY1IDMuMDk4LTcuNjUgOC4wMzEtNy40NSAxNC4xNy4wOCAyLjQxOC43MyA0Ljc0OCAyLjAxMyA2LjgwNS40NTIuNzI1Ljk1NyAxLjQwNiAxLjUwMyAyLjA1NXpNMTQ3LjQ4OCA0NS43MzJoMjIuODY2djIzLjM3NWgxMS41NjFjNS4zNCAwIDEwLjgzMS0uOTUxIDE1Ljg4Ny0yLjY2NCAyLjQ4NS0uODQzIDUuMjczLTIuMDE1IDcuNzI0LTMuNDktMy4yMjgtNC4yMTQtNC44NzYtOS41MzUtNS4zNi0xNC43OC0uNjYtNy4xMzUuNzgtMTYuNDIxIDUuNjA4LTIyLjAwNWwyLjQwNC0yLjc4IDIuODY0IDIuMzAzYzcuMjExIDUuNzkzIDEzLjI3NiAxMy44ODkgMTQuMzQ1IDIzLjExOCA4LjY4My0yLjU1NCAxOC44NzgtMS45NSAyNi41MzEgMi40NjdsMy4xNCAxLjgxMi0xLjY1MiAzLjIyNkMyNDYuOTMzIDY4Ljk0NiAyMzMuNCA3Mi44NiAyMjAuMTcgNzIuMTY3Yy0xOS43OTcgNDkuMzA5LTYyLjg5OCA3Mi42NTMtMTE1LjE1NyA3Mi42NTMtMjcgMC01MS43Ny0xMC4wOTMtNjUuODc2LTM0LjA0N2wtLjIzMS0uMzktMi4wNTUtNC4xODJjLTQuNzY4LTEwLjU0NC02LjM1Mi0yMi4wOTUtNS4yNzgtMzMuNjM3bC4zMjMtMy40NTdINTEuNDVWNDUuNzMyaDIyLjg2NVYyMi44NjZoNDUuNzMzVjBoMjcuNDR2NDUuNzMyIi8+JiN4YTsmI3hhOzxwYXRoIGZpbGw9IiMyMkEwQzgiIGQ9Ik0yMjEuNTcgNTQuMzhjMS41MzMtMTEuOTE2LTcuMzg0LTIxLjI3NS0xMi45MTQtMjUuNzE5LTYuMzczIDcuMzY4LTcuMzYzIDI2LjY3OCAyLjYzNSAzNC44MDgtNS41OCA0Ljk1Ni0xNy4zMzcgOS40NDgtMjkuMzc2IDkuNDQ4SDM1LjM3Yy0xLjE3IDEyLjU2NyAxLjAzNiAyNC4xNCA2LjA3NSAzNC4wNDVsMS42NjcgMy4wNWE1Ni41MzYgNTYuNTM2IDAgMCAwIDMuNDU1IDUuMTg0YzYuMDI1LjM4NyAxMS41OC41MiAxNi42NjIuNDA4aC4wMDJjOS45ODctLjIyIDE4LjEzNi0xLjQgMjQuMzEyLTMuNTRhMS43NjEgMS43NjEgMCAwIDEgMS4xNTMgMy4zMjZjLS44MjIuMjg2LTEuNjc4LjU1Mi0yLjU2Mi44MDVoLS4wMDNjLTQuODYzIDEuMzg5LTEwLjA3OCAyLjMyMy0xNi44MDYgMi43MzguNC4wMDctLjQxNi4wNi0uNDE4LjA2LS4yMjkuMDE1LS41MTcuMDQ4LS43NDcuMDYtMi42NDguMTQ5LTUuNTA2LjE4LTguNDI4LjE4LTMuMTk2IDAtNi4zNDMtLjA2LTkuODYyLS4yNGwtLjA5LjA2YzEyLjIxIDEzLjcyNCAzMS4zMDIgMjEuOTU1IDU1LjIzNCAyMS45NTUgNTAuNjQ4IDAgOTMuNjA4LTIyLjQ1MiAxMTIuNjMyLTcyLjg1NyAxMy40OTYgMS4zODUgMjYuNDY3LTIuMDU3IDMyLjM2Ny0xMy41NzUtOS4zOTgtNS40MjMtMjEuNDg0LTMuNjk0LTI4LjQ0My0uMTk2Ii8+JiN4YTsmI3hhOzxwYXRoIGZpbGw9IiMzN0IxRDkiIGQ9Ik0yMjEuNTcgNTQuMzhjMS41MzMtMTEuOTE2LTcuMzg0LTIxLjI3NS0xMi45MTQtMjUuNzE5LTYuMzczIDcuMzY4LTcuMzYzIDI2LjY3OCAyLjYzNSAzNC44MDgtNS41OCA0Ljk1Ni0xNy4zMzcgOS40NDgtMjkuMzc2IDkuNDQ4SDQ0LjA0OGMtLjU5OCAxOS4yNDYgNi41NDQgMzMuODU1IDE5LjE4IDQyLjY4N2guMDAzYzkuOTg3LS4yMiAxOC4xMzYtMS40IDI0LjMxMi0zLjU0YTEuNzYxIDEuNzYxIDAgMCAxIDEuMTUzIDMuMzI2Yy0uODIyLjI4Ni0xLjY3OC41NTItMi41NjIuODA1aC0uMDAzYy00Ljg2MyAxLjM4OS0xMC41MjYgMi40NDMtMTcuMjU0IDIuODU4LS4wMDIgMC0uMTYzLS4xNTUtLjE2NS0uMTU1IDE3LjIzNyA4Ljg0MiA0Mi4yMyA4LjgxIDcwLjg4NS0yLjE5NyAzMi4xMy0xMi4zNDQgNjIuMDI5LTM1Ljg2IDgyLjg5LTYyLjc1Ny0uMzE0LjE0Mi0uNjIuMjg3LS45MTcuNDM2Ii8+JiN4YTsmI3hhOzxwYXRoIGZpbGw9IiMxQjgxQTUiIGQ9Ik0zNS42NDUgODguMTg2Yy45MSA2LjczMiAyLjg4IDEzLjAzNSA1LjggMTguNzc2bDEuNjY3IDMuMDVhNTYuNDMyIDU2LjQzMiAwIDAgMCAzLjQ1NSA1LjE4NGM2LjAyNi4zODcgMTEuNTgxLjUyIDE2LjY2NC40MDggOS45ODctLjIyIDE4LjEzNi0xLjQgMjQuMzEyLTMuNTRhMS43NjEgMS43NjEgMCAwIDEgMS4xNTMgMy4zMjZjLS44MjIuMjg2LTEuNjc4LjU1Mi0yLjU2Mi44MDVoLS4wMDNjLTQuODYzIDEuMzg5LTEwLjQ5NiAyLjM4My0xNy4yMjQgMi43OTktLjIzMS4wMTQtLjYzNC4wMTctLjg2Ny4wMy0yLjY0Ni4xNDgtNS40NzUuMjM5LTguMzk4LjIzOS0zLjE5NSAwLTYuNDYzLS4wNjEtOS45OC0uMjQgMTIuMjEgMTMuNzI0IDMxLjQyIDIxLjk4NSA1NS4zNTIgMjEuOTg1IDQzLjM2IDAgODEuMDg0LTE2LjQ1OCAxMDIuOTc5LTUyLjgyMkgzNS42NDUiLz4mI3hhOyYjeGE7PHBhdGggZmlsbD0iIzFEOTFCNCIgZD0iTTQ1LjM2NyA4OC4xODZjMi41OTIgMTEuODIgOC44MjEgMjEuMDk5IDE3Ljg2NCAyNy40MTggOS45ODctLjIyIDE4LjEzNi0xLjQgMjQuMzEyLTMuNTRhMS43NjEgMS43NjEgMCAwIDEgMS4xNTMgMy4zMjZjLS44MjIuMjg2LTEuNjc4LjU1Mi0yLjU2Mi44MDVoLS4wMDNjLTQuODYzIDEuMzg5LTEwLjYxNSAyLjM4My0xNy4zNDQgMi43OTkgMTcuMjM2IDguODQgNDIuMTU3IDguNzEzIDcwLjgxLTIuMjkzIDE3LjMzNC02LjY2IDM0LjAxNy0xNi41NzQgNDguOTg0LTI4LjUxNUg0NS4zNjciLz4mI3hhOyYjeGE7PHBhdGggZmlsbD0iIzIzQTNDMiIgZD0iTTU1LjI2IDQ5LjU0M2gxOS44MTh2MTkuODE4SDU1LjI2VjQ5LjU0M3ptMS42NTEgMS42NTJoMS41NjRWNjcuNzFoLTEuNTY0VjUxLjE5NXptMi45NCAwaDEuNjI3VjY3LjcxaC0xLjYyNlY1MS4xOTV6bTMuMDAyIDBoMS42MjdWNjcuNzFoLTEuNjI3VjUxLjE5NXptMy4wMDQgMGgxLjYyNlY2Ny43MWgtMS42MjZWNTEuMTk1em0zLjAwMyAwaDEuNjI2VjY3LjcxSDY4Ljg2VjUxLjE5NXptMy4wMDIgMGgxLjU2NVY2Ny43MWgtMS41NjVWNTEuMTk1ek03OC4xMjYgMjYuNjc3aDE5LjgxOXYxOS44MTdoLTE5LjgyVjI2LjY3N3ptMS42NTIgMS42NTJoMS41NjN2MTYuNTE0aC0xLjU2M1YyOC4zMjl6bTIuOTQgMGgxLjYyNnYxNi41MTRoLTEuNjI1VjI4LjMyOXptMy4wMDIgMGgxLjYyNnYxNi41MTRIODUuNzJWMjguMzI5em0zLjAwMyAwaDEuNjI2djE2LjUxNGgtMS42MjZWMjguMzI5em0zLjAwMyAwaDEuNjI3djE2LjUxNGgtMS42MjdWMjguMzI5em0zLjAwMiAwaDEuNTY2djE2LjUxNGgtMS41NjZWMjguMzI5eiIvPiYjeGE7JiN4YTs8cGF0aCBmaWxsPSIjMzRCQkRFIiBkPSJNNzguMTI2IDQ5LjU0M2gxOS44MTl2MTkuODE4aC0xOS44MlY0OS41NDN6bTEuNjUyIDEuNjUyaDEuNTYzVjY3LjcxaC0xLjU2M1Y1MS4xOTV6bTIuOTQgMGgxLjYyNlY2Ny43MWgtMS42MjVWNTEuMTk1em0zLjAwMiAwaDEuNjI2VjY3LjcxSDg1LjcyVjUxLjE5NXptMy4wMDMgMGgxLjYyNlY2Ny43MWgtMS42MjZWNTEuMTk1em0zLjAwMyAwaDEuNjI3VjY3LjcxaC0xLjYyN1Y1MS4xOTV6bTMuMDAyIDBoMS41NjZWNjcuNzFoLTEuNTY2VjUxLjE5NXoiLz4mI3hhOyYjeGE7PHBhdGggZmlsbD0iIzIzQTNDMiIgZD0iTTEwMC45OTMgNDkuNTQzaDE5LjgxOHYxOS44MThoLTE5LjgxOFY0OS41NDN6bTEuNjUxIDEuNjUyaDEuNTYzVjY3LjcxaC0xLjU2M1Y1MS4xOTV6bTIuOTQgMGgxLjYyNlY2Ny43MWgtMS42MjZWNTEuMTk1em0zLjAwMyAwaDEuNjI2VjY3LjcxaC0xLjYyNlY1MS4xOTV6bTMuMDAzIDBoMS42MjZWNjcuNzFoLTEuNjI2VjUxLjE5NXptMy4wMDIgMGgxLjYyOFY2Ny43MWgtMS42MjhWNTEuMTk1em0zLjAwMyAwaDEuNTY0VjY3LjcxaC0xLjU2NFY1MS4xOTV6Ii8+JiN4YTsmI3hhOzxwYXRoIGZpbGw9IiMzNEJCREUiIGQ9Ik0xMDAuOTkzIDI2LjY3N2gxOS44MTh2MTkuODE3aC0xOS44MThWMjYuNjc3em0xLjY1MSAxLjY1MmgxLjU2M3YxNi41MTRoLTEuNTYzVjI4LjMyOXptMi45NCAwaDEuNjI2djE2LjUxNGgtMS42MjZWMjguMzI5em0zLjAwMyAwaDEuNjI2djE2LjUxNGgtMS42MjZWMjguMzI5em0zLjAwMyAwaDEuNjI2djE2LjUxNGgtMS42MjZWMjguMzI5em0zLjAwMiAwaDEuNjI4djE2LjUxNGgtMS42MjhWMjguMzI5em0zLjAwMyAwaDEuNTY0djE2LjUxNGgtMS41NjRWMjguMzI5ek0xMjMuODU5IDQ5LjU0M2gxOS44MTh2MTkuODE4aC0xOS44MThWNDkuNTQzem0xLjY1MiAxLjY1MmgxLjU2M1Y2Ny43MWgtMS41NjNWNTEuMTk1em0yLjk0IDBoMS42MjZWNjcuNzFoLTEuNjI2VjUxLjE5NXptMy4wMDIgMGgxLjYyNlY2Ny43MWgtMS42MjZWNTEuMTk1em0zLjAwMyAwaDEuNjI3VjY3LjcxaC0xLjYyN1Y1MS4xOTV6bTMuMDAzIDBoMS42MjdWNjcuNzFoLTEuNjI3VjUxLjE5NXptMy4wMDMgMGgxLjU2NFY2Ny43MWgtMS41NjRWNTEuMTk1eiIvPiYjeGE7JiN4YTs8cGF0aCBmaWxsPSIjMjNBM0MyIiBkPSJNMTIzLjg1OSAyNi42NzdoMTkuODE4djE5LjgxN2gtMTkuODE4VjI2LjY3N3ptMS42NTIgMS42NTJoMS41NjN2MTYuNTE0aC0xLjU2M1YyOC4zMjl6bTIuOTQgMGgxLjYyNnYxNi41MTRoLTEuNjI2VjI4LjMyOXptMy4wMDIgMGgxLjYyNnYxNi41MTRoLTEuNjI2VjI4LjMyOXptMy4wMDMgMGgxLjYyN3YxNi41MTRoLTEuNjI3VjI4LjMyOXptMy4wMDMgMGgxLjYyN3YxNi41MTRoLTEuNjI3VjI4LjMyOXptMy4wMDMgMGgxLjU2NHYxNi41MTRoLTEuNTY0VjI4LjMyOXoiLz4mI3hhOyYjeGE7PHBhdGggZmlsbD0iIzM0QkJERSIgZD0iTTEyMy44NTkgMy44MWgxOS44MThWMjMuNjNoLTE5LjgxOFYzLjgxem0xLjY1MiAxLjY1MWgxLjU2M3YxNi41MTZoLTEuNTYzVjUuNDZ6bTIuOTQgMGgxLjYyNnYxNi41MTZoLTEuNjI2VjUuNDZ6bTMuMDAyIDBoMS42MjZ2MTYuNTE2aC0xLjYyNlY1LjQ2em0zLjAwMyAwaDEuNjI3djE2LjUxNmgtMS42MjdWNS40NnptMy4wMDMgMGgxLjYyN3YxNi41MTZoLTEuNjI3VjUuNDZ6bTMuMDAzIDBoMS41NjR2MTYuNTE2aC0xLjU2NFY1LjQ2eiIvPiYjeGE7JiN4YTs8cGF0aCBmaWxsPSIjMjNBM0MyIiBkPSJNMTQ2LjcyNSA0OS41NDNoMTkuODE4djE5LjgxOGgtMTkuODE4VjQ5LjU0M3ptMS42NSAxLjY1MmgxLjU2NVY2Ny43MWgtMS41NjRWNTEuMTk1em0yLjk0IDBoMS42MjdWNjcuNzFoLTEuNjI2VjUxLjE5NXptMy4wMDQgMGgxLjYyN1Y2Ny43MWgtMS42MjdWNTEuMTk1em0zLjAwMiAwaDEuNjI3VjY3LjcxaC0xLjYyN1Y1MS4xOTV6bTMuMDA0IDBoMS42MjZWNjcuNzFoLTEuNjI2VjUxLjE5NXptMy4wMDIgMGgxLjU2NFY2Ny43MWgtMS41NjRWNTEuMTk1eiIvPiYjeGE7JiN4YTs8cGF0aCBmaWxsPSIjRDNFQ0VDIiBkPSJNOTYuNzA0IDEwMS40OTJhNS40NjggNS40NjggMCAxIDEtLjAwMiAxMC45MzUgNS40NjggNS40NjggMCAwIDEgLjAwMi0xMC45MzUiLz4mI3hhOyYjeGE7PHBhdGggZmlsbD0iIzM2NDU0OCIgZD0iTTk2LjcwNCAxMDMuMDQzYy41IDAgLjk3Ny4wOTQgMS40MTcuMjY1YTEuNTk4IDEuNTk4IDAgMCAwIC43OTggMi45OGMuNjA1IDAgMS4xMy0uMzM1IDEuNDAyLS44MzFhMy45MTUgMy45MTUgMCAxIDEtMy42MTctMi40MTRNMCA5MC4xNjJoMjU0LjMyN2MtNS41MzctMS40MDQtMTcuNTItMy4zMDItMTUuNTQ0LTEwLjU2LTEwLjA3IDExLjY1Mi0zNC4zNTMgOC4xNzUtNDAuNDgyIDIuNDMtNi44MjQgOS44OTgtNDYuNTU0IDYuMTM1LTQ5LjMyNS0xLjU3Ni04LjU1NiAxMC4wNDEtMzUuMDY3IDEwLjA0MS00My42MjMgMC0yLjc3MyA3LjcxMS00Mi41MDIgMTEuNDc0LTQ5LjMyNyAxLjU3NS02LjEyOCA1Ljc0Ni0zMC40MSA5LjIyMy00MC40OC0yLjQyOEMxNy41MjIgODYuODYgNS41MzkgODguNzU4IDAgOTAuMTYzIi8+JiN4YTsmI3hhOzxwYXRoIGZpbGw9IiNCREQ5RDciIGQ9Ik0xMTEuMjM3IDE0MC44OWMtMTMuNTQtNi40MjUtMjAuOTcxLTE1LjE2LTI1LjEwNi0yNC42OTQtNS4wMyAxLjQzNS0xMS4wNzUgMi4zNTMtMTguMSAyLjc0Ny0yLjY0Ni4xNDgtNS40My4yMjQtOC4zNS4yMjQtMy4zNjggMC02LjkxNy0uMS0xMC42NDMtLjI5NyAxMi40MTcgMTIuNDEgMjcuNjkyIDIxLjk2NCA1NS45NzYgMjIuMTM4IDIuMDg4IDAgNC4xNi0uMDQgNi4yMjMtLjExOCIvPiYjeGE7JiN4YTs8cGF0aCBmaWxsPSIjRDNFQ0VDIiBkPSJNOTEuMTYgMTI0Ljk5NGMtMS44NzMtMi41NDMtMy42OS01LjczOS01LjAyNi04LjgtNS4wMyAxLjQzNy0xMS4wNzcgMi4zNTUtMTguMTAzIDIuNzUgNC44MjYgMi42MTkgMTEuNzI3IDUuMDQ2IDIzLjEzIDYuMDUiLz4mI3hhOyYjeGE7PC9nPiYjeGE7JiN4YTs8L3N2Zz4=;" vertex="1" parent="vCd6vIvfis11NrJTEesd-27">
          <mxGeometry x="203.5" y="30" width="72.5" height="72.5" as="geometry" />
        </mxCell>
        <mxCell id="vCd6vIvfis11NrJTEesd-83" value="" style="html=1;verticalLabelPosition=bottom;align=center;labelBackgroundColor=#ffffff;verticalAlign=top;strokeWidth=2;strokeColor=#0080F0;shadow=0;dashed=0;shape=mxgraph.ios7.icons.data;" vertex="1" parent="vCd6vIvfis11NrJTEesd-27">
          <mxGeometry x="90" y="50" width="56.33" height="89.1" as="geometry" />
        </mxCell>
        <mxCell id="vCd6vIvfis11NrJTEesd-82" value="" style="shape=image;verticalLabelPosition=bottom;labelBackgroundColor=default;verticalAlign=top;aspect=fixed;imageAspect=0;image=data:image/svg+xml,PHN2ZyB4bWxucz0iaHR0cDovL3d3dy53My5vcmcvMjAwMC9zdmciIGhlaWdodD0iOTQiIHdpZHRoPSIxMDciIHZpZXdCb3g9IjAgMCAxMDcgOTQiPjxzdHlsZT4uQntzdHJva2Utd2lkdGg6MS42ODJ9LkN7c3Ryb2tlOiNmZmZ9LkR7c3Ryb2tlLWxpbmVjYXA6cm91bmR9LkV7c3Ryb2tlLWxpbmVqb2luOnJvdW5kfTwvc3R5bGU+PHBhdGggZmlsbD0iIzIzMWYyMCIgZD0iTTExLjIgNzguOTAySDYuNTQydi00LjI2aDQuOTJjMS44IDAgMi43MDIuNzIgMi43MDIgMi4xNjMgMCAxLjM5OC0uOTg1IDIuMDk3LTIuOTU1IDIuMDk3bTMuMzU0LTQuM2MtLjY0LS41Mi0xLjUzNC0uNzgtMi42ODQtLjc4bC02LjY4NC4wMzR2MTAuMmgxLjM0N2wtLjAxMi00LjMzOGg0Ljk3M2MxLjI0NyAwIDIuMjMtLjI2IDIuOTQ1LS43OHMxLjA3NS0xLjI0IDEuMDc1LTIuMTYzLS4zMi0xLjY0My0uOTYtMi4xNjN6bTguNzE3IDcuMjk2YTIuMDkgMi4wOSAwIDAgMS0uNjM5Ljg2N2MtLjYwMy41MzQtMS41MjMuOC0yLjc2LjgtMS4xMTggMC0xLjk3Ni0uMjYtMi41NzQtLjc4cy0uODk4LTEuMjE0LS44OTgtMi4wODVjMC0uNDUzLjA3OC0uODU2LjIzNS0xLjIwN2EyLjQgMi40IDAgMCAxIC42OC0uODljLjYyLS41MTIgMS40Ny0uNzY4IDIuNTU3LS43NjggMi40MDQgMCAzLjYwNi45NTUgMy42MDYgMi44NjQgMCAuNDU0LS4wNy44NTItLjIwNSAxLjE5Nm0uMjQ0LTMuNzZjLS44Mi0uNjgtMi4wMzYtMS4wMi0zLjY0NS0xLjAyLTEuNTIgMC0yLjY5Ni4zNDctMy41MjQgMS4wNC0uNzQ4LjYyOC0xLjEyMiAxLjQ3NS0xLjEyMiAyLjU0cy4zODYgMS45MTMgMS4xNiAyLjU2M2EzLjk5IDMuOTkgMCAwIDAgMS40OTEuNzYxYy41NjcuMTU3IDEuMjMzLjIzNSAxLjk5Ny4yMzUgMS42IDAgMi44Mi0uMzM2IDMuNjU3LTEuMDA4Ljc0OC0uNjEzIDEuMTIyLTEuNDY0IDEuMTIyLTIuNTUyIDAtMS4wOTUtLjM3OC0xLjk1LTEuMTM1LTIuNTYzem0xMC4xODYgNC4wNTdjMCAxLjM3Mi0xLjM1NCAyLjA1Ny00LjA2MyAyLjA1Ny0uODI4IDAtMS41MjUtLjA0OC0yLjA5Mi0uMTQzcy0xLjAyNy0uMjU0LTEuMzgtLjQ3NGMtLjI3My0uMTY4LS41LS4zODctLjY1LS42NTdhMi43NSAyLjc1IDAgMCAxLS4zMTMtMS4wMThsMS4yNi0uMDFjMCAuNTQuMjIuOTM3LjY2MiAxLjE5My40NzMuMzA3IDEuMzEyLjQ2IDIuNTE1LjQ2IDEuODkzIDAgMi44NC0uNDMgMi44NC0xLjMgMC0uNTAzLS4zMTctLjg1LS45NTItMS4wNC0uMTMtLjAzNy0uODk0LS4xMzMtMi4yOTctLjNsLTIuNjIyLS40MmMtLjc0Ny0uMjctMS4xMi0uNzU1LTEuMTItMS40NTYgMC0uNjg2LjMzNC0xLjE5NyAxLjAwMi0xLjUzMi4zMy0uMTQuNzQyLS4yNDYgMS4yMzctLjMyM3MxLjA2OC0uMTE1IDEuNzItLjExNWMyLjYwNyAwIDMuOS43NDIgMy45IDIuMjI3aC0xLjJjMC0xLjA0My0uOTE2LTEuNTY1LTIuNzUtMS41NjUtLjkzMiAwLTEuNjI4LjEwNi0yLjA4Ni4zMTdzLS42ODcuNTM2LS42ODcuOTc0YzAgLjQuMy43MDQuOTI4Ljg4Ni4zNjIuMDk1IDEuMTk0LjIwNSAyLjQ5Ni4zMjggMS4xNjYuMDk1IDEuOTY1LjIzIDIuNC40MDUuODI4LjI5MiAxLjI0Mi43ODggMS4yNDIgMS40ODh6bTQuOTQ4IDEuODU4bC0uNTEzLjA2NS0uMzIuMDIyYy0uODIgMC0xLjQxMi0uMTA4LTEuNzc1LS4zMjRzLS41NDQtLjU5NC0uNTQ0LTEuMTM1di00LjY1aC0xLjQ5NXYtLjY4NGgxLjQ4M2wuMDEyLTIuMTk3aDEuMTV2Mi4xOTdoMnYuNjk1bC0yLS4wMXY0LjUyNGMwIC4zMzcuMDk4LjU3LjI5Ni42OThzLjU1LjE5MiAxLjA1NS4xOTJjLjA3Mi4wMDcuMTUzLjAwNS4yNC0uMDA3cy4yMi0uMDQuMzk4LS4wODJsLjAxMi42OTh6bTcuOTQ3LTEuNTQyYTMuNTIgMy41MiAwIDAgMS0xLjA3My41MzZjLS40MDIuMTI0LS44NjQuMTg2LTEuMzg2LjE4Ni0yLjQwMyAwLTMuNjA0LS45LTMuNjA0LTIuNyAwLS44MzguMzA3LTEuNDk1LjkyMi0xLjk2OHMxLjQ4LS43IDIuNTk3LS43YzEuMTI1IDAgMS45OC4yNCAyLjU2LjcxNnMuODc0IDEuMTE3Ljg3NCAxLjkyYzAgLjg3NS0uMjk3IDEuNTUtLjg5MiAyLjAyM20yLjA0LTUuMTZINDcuNWwtLjAxMiAxLjE1Yy0uNTA2LS40NjctLjg2OC0uNzYyLTEuMDg1LS44ODYtLjY0My0uMzItMS40NzUtLjQ4LTIuNDk2LS40OC0xLjQ5NiAwLTIuNjM3LjMtMy40MjUuOTMtLjc0OC41Ny0xLjEyMiAxLjM5My0xLjEyMiAyLjQ3MiAwIC41MzIuMDk1IDEuMDA4LjI4NCAxLjQyN2EyLjg2IDIuODYgMCAwIDAgLjgyNyAxLjA2NmMuOC41OTggMS45MDQuODk3IDMuMzQ2Ljg5NyAxLjczIDAgMi45Ni0uNDMgMy42ODQtMS4zdjEuMmMwIC43Ni0uMjY0IDEuMzQ2LS44IDEuNzYycy0xLjM5My42MjQtMi42LjYyNGMtMS4xMzQgMC0xLjk0Mi0uMTQyLTIuNDI0LS40MjUtLjM2Mi0uMjE4LS42LS41OTYtLjc0OC0xLjEzM2gtMS4xODJjLjEzLjc1LjQ4IDEuMjk0IDEuMDUgMS42My42Ni4zODYgMS43NzMuNTggMy4zNDIuNTggMyAwIDQuNS0xLjAxMiA0LjUtMy4wMzZ2LTYuNXptNi4yMTcuNjc1YTYuNjQgNi42NCAwIDAgMC0uOTY0LS4wNzZjLTEuODg4IDAtMi44MzIuOTQtMi44MzIgMi44MnYzLjI2OEg0OS45M2wtLjAxMi02LjY4NyAxLjE1LjAxdjEuMTkzaC4wNmEyLjEzIDIuMTMgMCAwIDEgLjkxNi0xLjA2OWMuNDU4LS4yMzUgMS4xNC0uMzUzIDIuMDUtLjM1M2guNzd2Ljg5NXptMS4wNjggMi4yMzRjLjE0NS0uNzYuNDctMS4zNDguOTc2LTEuNzY1LjMzLS4yNC43MDMtLjQyMiAxLjEyLS41NDNzLjg4OC0uMTggMS40LS4xOGMxLjAyIDAgMS44NTQuMjU0IDIuNS43NjJzLjk3IDEuMDgzLjk3IDEuNzI3aC02Ljk4bTcuMDkyLTIuMDYzYy0uNDAyLS4zNjYtLjktLjYzNy0xLjQ5Ni0uODEycy0xLjMtLjI2NC0yLjA4Ny0uMjY0Yy0xLjUgMC0yLjY0My4zMTQtMy40NjQuOTQycy0xLjIzIDEuNDgyLTEuMjMgMi41NjMuMzk0IDEuOTM4IDEuMTgyIDIuNTczYy44NTIuNyAyLjA1NSAxLjA1IDMuNjA3IDEuMDUuNjIgMCAxLjE5Mi0uMDY0IDEuNzItLjJzLjk4Ny0uMzA3IDEuMzgtLjU0Yy42OTItLjQ1IDEuMTMtMS4wMDcgMS4zMTUtMS42NjhoLTEuMjQyYy0uNDI2IDEuMTQzLTEuNDg3IDEuNzE1LTMuMTgzIDEuNzE1LTEuMTk4IDAtMi4xMi0uMjgtMi43Ni0uODQtLjU1NS0uNDgtLjgzMi0xLjEtLjgzMi0xLjg2M2g4LjJjMC0xLjEzNC0uMzY2LTIuMDI0LTEuMDk4LTIuNjY4eiIvPjxwYXRoIGZpbGw9IiMzNjdmYWYiIGQ9Ik03Ni4yNTggODEuMzA1YzAgMS45ODUtMS43NjQgMi45NzgtNS4yOTQgMi45NzgtMi4xMTUgMC0zLjY1OC0uMzQyLTQuNjMtMS4wMjYtLjc5Ni0uNTYyLTEuMTk0LTEuNDItMS4xOTQtMi41NzJoMS40MmMwIDEuODUzIDEuNDY3IDIuNzggNC40MDMgMi43OCAxLjQwNyAwIDIuNDI1LS4yIDMuMDUzLS41Ny41My0uMzM1Ljc5Ni0uODYuNzk2LTEuNTc1IDAtLjcwNy0uMzYyLTEuMjAzLTEuMDg2LTEuNDg3LS40LS4xNTMtMS40MTItLjM0Ni0zLjAwNC0uNTgtMi4wMDMtLjI3Ny0zLjMtLjU1NC0zLjg5Ny0uODMtLjg2LS40MDgtMS4zLTEuMS0xLjMtMi4wNzggMC0uOS4zNjYtMS42IDEuMDk4LTIuMDM0Ljc4OC0uNDg4IDIuMTQtLjczMyA0LjA1NC0uNzMzIDMuNDYgMCA1LjE4OCAxLjA0MiA1LjE4OCAzLjEyN2gtMS40MzNjMC0xLjU2Mi0xLjI4NC0yLjM0Mi0zLjg1Mi0yLjM0Mi0xLjI4OCAwLTIuMjMuMTU3LTIuODI2LjQ3LS41NjQuMzM2LS44NDUuODI4LS44NDUgMS40NzggMCAuNjguMzYyIDEuMTU3IDEuMDg2IDEuNDM0LjM4Ni4xNiAxLjUyLjM4MyAzLjQwMi42NjggMS43Ny4yNCAyLjk2NC41MjIgMy41ODQuODQzLjg0NS4zOTQgMS4yNjcgMS4wNzcgMS4yNjcgMi4wNDh6bTExLjU0IDEuMDEzYTUuNzUgNS43NSAwIDAgMS0xLjc5OS44NjljLS42NjguMTkzLTEuNDE3LjMtMi4yNDYuMy0xLjcgMC0zLjA1Ny0uNDEzLTQuMS0xLjI0Uzc4LjEgODAuMzA3IDc4LjEgNzguOTNjMC0xLjQzNS41MTctMi41NTMgMS41NS0zLjM1NXMyLjQwNS0xLjIwMiA0LjExMi0xLjIwMmMxLjczIDAgMy4wOTIuNDIgNC4wODIgMS4yNTdhMy45MyAzLjkzIDAgMCAxIDEuMTYgMS40MzJjLjI2LjU0Ny4zNzQgMS4xNy4zNzQgMS44NyAwIDEuNDI4LS41MjMgMi41NTctMS41NyAzLjM4N20uNzU1LjY3NmMuNzQtLjQ3NCAxLjI4OC0xLjA0OCAxLjY0Mi0xLjcyMnMuNTMyLTEuNDUzLjUzMi0yLjMzNWMwLTEuNTgyLS41OC0yLjg1LTEuNzM4LTMuODA2LS42Mi0uNTI1LTEuMzY4LS45MTUtMi4yNDQtMS4xN3MtMS44OC0uMzgzLTMuMDA0LS4zODNjLTIuMTg4IDAtMy45MDUuNDgtNS4xNTIgMS40NDRzLTEuODcgMi4yNjctMS44NyAzLjkxNWE0LjY5IDQuNjkgMCAwIDAgMS44ODcgMy44ODJjMS4yNTcuOTg0IDIuOTc4IDEuNDc2IDUuMTU3IDEuNDc2YTEzLjgzIDEzLjgzIDAgMCAwIDIuMjMtLjE1N2MuNjM0LS4xMDUgMS4xNzQtLjI2NSAxLjYxNy0uNDgybDIuMSAxLjMyLjg3Ni0uNzMtMi4wMzItMS4yNXptMTIuODA0IDEuMDRIOTEuNjZ2LTEwLjJsMS4zMzQtLjAyMnY5LjM3aDguMzg1bC0uMDEyLjg1MnoiLz48cGF0aCBzdHJva2Utd2lkdGg9IjUuMDQ2IiBzdHJva2U9IiMyMzFmMjAiIGZpbGw9IiMyMzFmMjAiIGQ9Ik02Ny41NDYgNDkuNjU1Yy4zODItMy4xODUuMjY4LTMuNjUyIDIuNjQtMy4xMzZsLjYwMi4wNTNjMS44MjQuMDgzIDQuMi0uMjkzIDUuNjEyLS45NDUgMy4wMTgtMS40IDQuODA3LTMuNzM4IDEuODMyLTMuMTI0LTYuNzg3IDEuNC03LjI1NC0uODk4LTcuMjU0LS44OTggNy4xNjctMTAuNjM0IDEwLjE2My0yNC4xMzQgNy41NzctMjcuNDQtNy4wNTQtOS4wMTMtMTkuMjYzLTQuNzUtMTkuNDY4LTQuNjRsLS4wNjUuMDEyYy0xLjM0Mi0uMjc4LTIuODQyLS40NDQtNC41MjgtLjQ3Mi0zLjA3LS4wNS01LjQwMi44MDUtNy4xNyAyLjE0NiAwIDAtMjEuNzgtOC45NzQtMjAuNzY4IDExLjI4Ni4yMTYgNC4zIDYuMTc4IDMyLjYxMiAxMy4yODggMjQuMDYzIDIuNi0zLjEyNiA1LjExLTUuNzcgNS4xMS01Ljc3IDEuMjQ3LjgzIDIuNzQgMS4yNSA0LjMwNiAxLjFsLjEyLS4xMDNjLS4wMzguMzg4LS4wMi43NjguMDQ4IDEuMjE3LTEuODMyIDIuMDQ3LTEuMjkzIDIuNDA2LTQuOTU2IDMuMTYtMy43MDUuNzY0LTEuNTI4IDIuMTIzLS4xMDcgMi40NzggMS43MjMuNDMgNS43MSAxLjA0IDguNDAyLTIuNzNsLS4xMDcuNDNjLjcyLjU3NS42NyA0LjEzMi43NzIgNi42NzNzLjI3MiA0LjkxMy44IDYuMzEyIDEuMTMgNSA1Ljk0MyAzLjk2OGM0LjAyMy0uODYyIDcuMDk4LTIuMTAzIDcuMzgtMTMuNjQ0Ii8+PHBhdGggZmlsbD0iIzQxN2JhMiIgZD0iTTc4LjIzMyA0Mi41MDNjLTYuNzg4IDEuNC03LjI1NS0uODk4LTcuMjU1LS44OTggNy4xNjctMTAuNjM1IDEwLjE2My0yNC4xMzUgNy41NzgtMjcuNDQtNy4wNTQtOS4wMTItMTkuMjY0LTQuNzUtMTkuNDY4LTQuNjRsLS4wNjYuMDEyYy0xLjM0Mi0uMjc4LTIuODQyLS40NDQtNC41My0uNDcyLTMuMDctLjA1LTUuNC44MDUtNy4xNyAyLjE0NiAwIDAtMjEuNzgyLTguOTczLTIwLjc3IDExLjI4Ni4yMTUgNC4zIDYuMTc3IDMyLjYxMiAxMy4yODggMjQuMDY0IDIuNi0zLjEyNiA1LjEtNS43NyA1LjEtNS43NyAxLjI0Ny44MyAyLjc0IDEuMjUgNC4zMDYgMS4xbC4xMjItLjEwM2MtLjAzOC4zODgtLjAyLjc2OC4wNSAxLjIxNy0xLjgzMiAyLjA0Ny0xLjI5NCAyLjQwNi00Ljk1NiAzLjE2LTMuNzA2Ljc2NC0xLjUzIDIuMTIzLS4xMDggMi40NzggMS43MjMuNDMgNS43MSAxLjA0IDguNDAyLTIuNzNsLS4xMDcuNDNjLjcxOC41NzUgMS4yMjIgMy43NCAxLjEzNyA2LjYwOHMtLjE0IDQuODM4LjQyNSA2LjM3NyAxLjEzIDUgNS45NDQgMy45NjhjNC4wMjMtLjg2MiA2LjEwNy0zLjA5NiA2LjM5Ny02LjgyMi4yMDYtMi42NS42Ny0yLjI1OC43LTQuNjI2bC4zNzQtMS4xMmMuNDMtMy41OS4wNjgtNC43NSAyLjU0Ny00LjIxbC42MDIuMDUzYzEuODI0LjA4MyA0LjIxLS4yOTMgNS42MTMtLjk0NSAzLjAxNy0xLjQgNC44MDctMy43MzggMS44MzItMy4xMjR6Ii8+PGcgY2xhc3M9IkMgQiIgZmlsbD0ibm9uZSI+PGcgY2xhc3M9IkQiPjxwYXRoIGNsYXNzPSJFIiBkPSJNNTMuMDYgNDQuNTYyYy0uMTg3IDYuNjgyLjA0NyAxMy40LjcgMTUuMDQ2czIuMDU0IDQuODE2IDYuODcgMy43ODVjNC4wMjItLjg2MiA1LjQ4Ni0yLjUzIDYuMTItNi4yMTQuNDY4LTIuNyAxLjM3LTEwLjIzNiAxLjQ4NS0xMS43NzhNNDcuMyAxMS4wNjNzLTIxLjc5Ny04LjktMjAuNzgzIDExLjM1Yy4yMTYgNC4zIDYuMTc4IDMyLjYxMyAxMy4zIDI0LjA2NCAyLjYtMy4xMjYgNC45NS01LjU3OCA0Ljk1LTUuNTc4TTU5LjA2NCA5LjQzN2MtLjc1NS4yMzcgMTIuMTI1LTQuNzA4IDE5LjQ0NCA0LjY0NCAyLjU4NSAzLjMwNC0uNCAxNi44MDQtNy41NzggMjcuNDQiLz48cGF0aCBzdHJva2UtbGluZWpvaW49ImJldmVsIiBkPSJNNzAuOTMgNDEuNTJzLjQ2NyAyLjMgNy4yNTUuODk4YzIuOTc0LS42MTQgMS4xODQgMS43MjQtMS44MzIgMy4xMjUtMi40NzYgMS4xNS04LjAyNiAxLjQ0My04LjExNy0uMTQ0LS4yMzQtNC4wOTYgMi45Mi0yLjg1MiAyLjY5NC0zLjg3OC0uMjA2LS45MjQtMS42MTctMS44MzItMi41NS00LjA5NC0uODE1LTEuOTc1LTExLjE3My0xNy4xMiAyLjg3My0xNC44Ny41MTUtLjEwNi0zLjY2My0xMy4zNi0xNi44MDgtMTMuNTc1cy0xMi43IDE2LjE2Mi0xMi43IDE2LjE2MiIvPjwvZz48ZyBjbGFzcz0iRSI+PHBhdGggZD0iTTQ5LjM4MyA0Mi45MjJjLTEuODMyIDIuMDQ3LTEuMjkzIDIuNDA2LTQuOTU2IDMuMTYtMy43MDUuNzY0LTEuNTI4IDIuMTIzLS4xMDggMi40NzggMS43MjMuNDMgNS43MSAxLjA0MiA4LjQwMi0yLjczLjgyLTEuMTQ4LS4wMDUtMi45OC0xLjEzLTMuNDQ4LS41NDQtLjIyNS0xLjI3Mi0uNTA4LTIuMjA4LjU0eiIvPjxwYXRoIGNsYXNzPSJEIiBkPSJNNDkuMjYyIDQyLjg4NmMtLjE4NC0xLjIwMy4zOTYtMi42MzUgMS4wMTctNC4zMS45MzQtMi41MTMgMy4wOS01LjAyOCAxLjM2NS0xMy0xLjI4NS01Ljk0Mi05LjkwNC0xLjIzNy05LjkxLS40M3MuNCA0LjA4NC0uMTQ0IDcuOWMtLjY5NyA0Ljk4IDMuMTcgOS4xOTQgNy42MjIgOC43NjMiLz48L2c+PC9nPjxnIGNsYXNzPSJDIiBmaWxsPSIjZmZmIj48cGF0aCBzdHJva2Utd2lkdGg9Ii41NjEiIGQ9Ik00Ny4yMTIgMjUuMDIzYy0uMDQuMjc1LjUwNCAxLjAxIDEuMjEgMS4xMDhzMS4zMS0uNDc1IDEuMzUtLjc1LS41MDQtLjU3OC0xLjIxLS42NzctMS4zMTIuMDQ1LTEuMzUuMzJ6Ii8+PHBhdGggc3Ryb2tlLXdpZHRoPSIuMjgiIGQ9Ik02OC43MjUgMjQuNDYyYy4wMzguMjc1LS41MDQgMS0xLjIxIDEuMTA4cy0xLjMxLS40NzUtMS4zNS0uNzUuNTA1LS41NzggMS4yMTItLjY3NyAxLjMxLjA0NSAxLjM1LjMyeiIvPjwvZz48cGF0aCBjbGFzcz0iQiBDIEQgRSIgZmlsbD0ibm9uZSIgZD0iTTcxLjI1MyAyMi41NTdjLjExNiAyLjE1OC0uNDY1IDMuNjMtLjUzOCA1LjkyNy0uMTEgMy4zNCAxLjU5MiA3LjE2Mi0uOTcgMTAuOTkiLz48L3N2Zz4=;" vertex="1" parent="vCd6vIvfis11NrJTEesd-27">
          <mxGeometry x="81" y="62.38" width="122.5" height="107.62" as="geometry" />
        </mxCell>
        <mxCell id="vCd6vIvfis11NrJTEesd-24" value="" style="shape=image;verticalLabelPosition=bottom;labelBackgroundColor=default;verticalAlign=top;aspect=fixed;imageAspect=0;image=data:image/webp,UklGRvYMAABXRUJQVlA4WAoAAAAQAAAAKwEAKwEAQUxQSF4DAAABoFXbVh3bQgISkICEKQEJSEDCdIAEJCBhSkACEpDAR6WSqr0Tcu4zETEB5vH/bXbYHXk8Yf+dsgAiyazXMX9xk6RKkgHAnQAiWaUxT71LhQzwi+aRWNXnBUuZEW6REFg05gI2ZcKtCyLV53K2yuDXwgXWPpe2FcIugAvUmIvcK2EvywZqzOXuNeFyfCp9LrxycBdhQY15A3tJ/uRsyG3eyVGJswqlzVsq+jPSvK16/Pf47/Hf47/Hf//tMPQz2+2SJJJMeHXml2KTJLOkdiuGlMkAOHPiHohklVZtqJKANZfrEEhplbpIePMLPb7qftBOBBaNdVFh8ObbHkAkyaLN+fO7NvkaALjPvUWk+lr0yuDNxy0QySr1edqSMhmAj2wjUmMBWkkwn3UIzNKYF9tVSeDYpgNrv6xWEswnPZjV5uVLTHAHNi2ocTFDhDXHEak+F1OVwe/bdDHrIlqJzhx2gepzYVsh7K5NpDrOTYQ1R33MmmvcxeB2vbpY2kkFb466kDVXu1fC7nm1IZ7RQbCOueytRL/n5F3Imus/KnF6LpY+b6QY7Fn5VMe8oS0He0aat1WP/x7/Pf57/Pf47225LSOfkbEh63aMmrw5cVDjLvQSvblAn0pfvZaDMxdqA7VovRLm/HMObs+mj1lLNcTgzFGfaj0jzTl7SX7Xpo9ZCzTE4MxRC2rOOXVWm2KwuzZdYG2rokJYc9jH0ubbc3vtJWHftg8sWoiuTDhz3IIac/f5bbYc/YFti8CifmUSCW8+acHa5/GL2FRJOPLeAmSVLmNImQkwH3Zg7fPDV7LZxeCP7bVAIFkljXPpkgqZAJgvWqSsMb95OdtNjLAfOWzxGrmtj/bZ9MHC7YBX8xMdUtaY37+ot6pM8F+5QIBUmz/22t4OiYzAhVggMavNH78Ee4dUSQLwp2MBRJKS5i9ejMN6zdzEXvs5j52Rm1WS+jzNtVnPx3+P/x7/Pf57/PdnJpR2T0R/RsYYG3K7FaMS5uRBjTvQS/LmIn0qfeWUgzMXa0GN9eo1wVy2C9RYpV4Ja67fBda+Nq0Q1iwlItXXo1UGb5bVBxaNFWjKhDNr7JFY1a+oKTPCmTUHIlmlcW5NKmSAN/fRAogkqdfxm5okVZIMAMyNdtjP4wn7zaN7VlA4IHIJAAAwQQCdASosASwBPp1OokulpKOhp3W4sLATiWVu/D64MuQDPJVV4XRadvi+fG5jf4XcD/YL3cbbP+V+hr+c/5L1/fR9/9Mim9bbz2NR68d9nGPXGMOFct/YJZ5/qPQC9g/lPpGzOPu5gn+i88Pn6VEOi16ABDz6ngsCZm8IDvyzraWQ/4+MoznnK7jNeCfj+BLE4miWbHnfi5Qbv/3hEpL0GP1kLZMqVUIatNzttYSJTa8MAq5Q96/0rqOZqJj5p2aXTF+kpg9v7IdLvkfjnKStwx1PAUHoz55CBkGQeRtRVTtauEDIMhAejPnejgJ7G8p5d0ySzoj4F7LXqJkCxIUynolzS2/bO50SVp3+HBnaezVLD+TFsGBAxdhjGi6xBuibGGaD6QsUZRHzVn3e+ePDnJUQzJJ3pWph2Uy+3VVrkXhSEDIMf/9LZtaCQG2CStwuufXogWD9fcYLjIQMFUoRulhqIWoSSDjJcpzoaBSKOcuVLVqZvMELJtzVcHHvN9vuuKZZKQlvkSBh1KKof5SOhnejAFTuOpgHUOuBniZMtSyiApThnNqMXq8Va6GBG5ISCspK3C659ejjair8IGQY//72Yi2HmmGph2Uy+3VUZnpHvr//3aVhO/AuAdQFGXW+bSaBXCf6nxrU4/eL0ZPVPtU7rfpaK07N8MuwDQ4HXHSVs0yP9bxOE2HHK7/m4wzxsAD+/hK+1GU2NgLYSVJNZGlI4JRVRt9e8hNSCWqf+6niO7/LqkLqbyQppXlzsnYTkmjdxoCE74yqQx2+rRmCwytq9BXK2ogq+Uqe2RiIVFrn6I6Css+ixm6+h+aPcDle87kLD8zXP+TLkA/3Oj8BW5R5wygXxPma0H/pUvKU5bID0VbPDn/z8bUkbIiyedqLFyQy3e0nCWr+Q8btHoGdn/9YX5AYyE9mNG4TZRDEm2xvmQcb2apJJLf71/j1Ol4IjHPR4UypgA/PDHa5b9+OKLYmewulF3OJSgoGukAffGVPQTj6DYpBi1wtkbmn43r4ju5TMWZW/dxGgRD7xEF84Im5/kVmJ4RXZ/PUEOxd6YlfPwc9GjsXBonzUZepoJK0bF2TwB2EJQJdsCv+tFDkjD01NRT75XYHnVI95yJcWU+qqnJAEZowKnPTnTVKUG6jj8pUTg7bLHCXAlq2iS1cZmZXGLViy8yd0iMpWuqskivNDlK9RgAAAdal6V+4FnMtOsW2liLQCpDUUhR0BDwfhQObjBdqnf6GaRmfhBVUR3fGgLQdkdndI/O339Rx+f0mVbzFGcUwkllrnLRUMIfLTjEr++tf82H5Cbn+83wv08QuODuwR61erwTo+HPAVgCHc+WFOGjZewTKAQRxJBFnoEajYDPQ2KZ47yZLPlB7vLsfNnzBLr5mbc5s2Yi9+r6ZgITf8EKfc6165EqdROJWUDCfhJ8BB76R88Trp19kodVWDnCggFvoeoQTIVNQQrKdrK9JpvjUBE1BWlJG1TxeAlSFaYDYA7JoaCKD+MVnd2b5U972m4K8oB0hUc8N+Ucz13+A6O0KmhWTSdRPX25i3P+1tgxTD3mUxlTzKOz2AlO3HIcQxfNUtZUW+P8jdSw4fBlmgXY6cVI/ou9JYZDJx8zhNX9Cj7Ji8CdFdeD4FkqlQwt1lYYwE8o6qWkTOckCRczCQM3MERHwhjPOlSZBCYQbraYQi7oKAqAVsAeudF6BOXUSg8N9xLOVc3nSTjcIYu9J6mpx8TtZmgFC+6D0LFkrdl1uBdAwWAdOd3WeuVWio1vNLcvCyt5Sr69YQI+KOuEd3hDpZhSWgmX2CUNd2iC6ZH6G27FZTgXVoVCulYO/xSX0W1LbtRovyNWtpnWT91Tq9RchEADPZ9lAAAB2V2wZ9ARwer4V1wkDm5WUDGAmOoyb6S9DMg/b3AvQ7NfFmYt+IqDg9Wh/nrS3Q7kvFtJF8985WSDIu/9S/rPL4IRau15cGovsq/+EFRdSKAfnfSPcH4mQwdXsgVB/cW36igl5JS0qoCNtwg/cofcN6BpDYbm3egHp3s1PyZUjhA2RcrsQVkqkkpMXITSo+zpEOUyiOdwguVhsT9HfUAG08ARVcdreMq71fkA/eDRMnfImjkhP5ID7jQGWFhJzRwrmchCRO88yrs70PMob7W7bqcmZSB3SqRA2zB35yUCcpnyv8/KeA5iQulmE1h5GtaCp85IT5cKh23HNRe2p3/Sf4DqASvUyOhz8SqYIh/0vqbkpyZEyAyH8AoNIcRKILclNvRhdAKYiWDR4zHxe40Zwe0x8NNMu7b5Q04iL7hViyPjwESOO8vP0uXrogLUmsIfkHiwGPMfEJ4e4FOGyKUF9UdrwMQreE7XIbL1l9701C3oJU4t/0BvbENxGA5PEWkgjUuJ7muEZsG2yLHga1525DqmU1uA5sJVTpjrKdp2qKREWBXUM1QANTeYocIwgdU2OkRYPTU2mQQneSfhOg94JCAtrcUKp8joLkFiBtrEUyotYmt2GxgyjpWThlH5WnsBN6/O2ZTqS4b3B3+r8TRnhpbahD0Hc+CUbB9sfrKZMfNSqdpx+IfxJ1GGB6bOGbJp9X7YyWj19E4p7nnBfo1Y9ykOsp+Ajo0qMsfi2qqhuVHmDop2ie/cuwE7djor6aPDG9daq5R+zmuJ2kvAP8fMmXIqAYvOn/CfrNIPGHMvSo4cu/1RbkxlvsibFGWjSC5lt/moTxf+BLSH0T5t9O7pYyCfqVo47oa1TgyeTjnvNhh/DmkPGH/h2HQzdvjkAtdyWLrZx7vw1UKAAcDmyhGEBVBXUM476BZE4X/kl4ow4iPqLEds85jDAIf1Cz9x1Fc8OpTGbbyyTXL4jWABbv3wYng9lhRO8K7HfAmQLrpzxWN4K8WpaP0QG2tRiiVraiu2dhOvoVQs9wM8guh5KhzhaS/Gi2Y/SWkci0hmVBxl/quIsq582qqVEzxztThkWzLqNXHqBN1p/8ULLiCgKmLIcx02Uxu5fZXEZUQEf4ZALWw7orpybN8VkmxH3PTlzVt6f74nDAhHk46sCEbYBV4Va5d/QO0ca2LbMjAlASyYhyjX2OmgZjCFtKDluLpgiNy9An4d7CE+aTX+rmekRLyRwOMAn+K4DaDP80qe/EUO3zMnTnB7IHXzOUgMIqqGNZKp7t2oL4j2Qh6RPhy4gwcQ5bUCzVOqw7tUnoRqES5eXNgxK9A8wAACrjCyy+x66oAAAAAA=;" vertex="1" parent="1">
          <mxGeometry x="828.65" y="710" width="71.35" height="71.35" as="geometry" />
        </mxCell>
        <mxCell id="vCd6vIvfis11NrJTEesd-31" value="&amp;nbsp;DAO&amp;nbsp;&lt;br&gt;&amp;nbsp;Layer" style="shape=folder;fontStyle=1;spacingTop=10;tabWidth=40;tabHeight=14;tabPosition=left;html=1;whiteSpace=wrap;align=left;" vertex="1" parent="1">
          <mxGeometry x="715" y="580" width="328" height="100" as="geometry" />
        </mxCell>
        <mxCell id="vCd6vIvfis11NrJTEesd-32" value="Saved Playlists&lt;br&gt;Repository" style="html=1;whiteSpace=wrap;fontStyle=1" vertex="1" parent="1">
          <mxGeometry x="915" y="610" width="110" height="50" as="geometry" />
        </mxCell>
        <mxCell id="vCd6vIvfis11NrJTEesd-33" value="Saved Tracks&lt;br&gt;Repository" style="html=1;whiteSpace=wrap;fontStyle=1" vertex="1" parent="1">
          <mxGeometry x="783.88" y="605" width="110" height="50" as="geometry" />
        </mxCell>
        <mxCell id="vCd6vIvfis11NrJTEesd-36" value="&amp;nbsp;Service&amp;nbsp;&lt;br&gt;&amp;nbsp;Layer" style="shape=folder;fontStyle=1;spacingTop=10;tabWidth=40;tabHeight=14;tabPosition=left;html=1;whiteSpace=wrap;align=left;" vertex="1" parent="1">
          <mxGeometry x="715" y="420" width="331.32" height="100" as="geometry" />
        </mxCell>
        <mxCell id="vCd6vIvfis11NrJTEesd-43" value="" style="edgeStyle=orthogonalEdgeStyle;rounded=0;orthogonalLoop=1;jettySize=auto;html=1;exitX=0.5;exitY=1;exitDx=0;exitDy=0;" edge="1" parent="1" source="vCd6vIvfis11NrJTEesd-37" target="vCd6vIvfis11NrJTEesd-33">
          <mxGeometry relative="1" as="geometry" />
        </mxCell>
        <mxCell id="vCd6vIvfis11NrJTEesd-37" value="Saved Tracks Service" style="html=1;whiteSpace=wrap;fontStyle=1" vertex="1" parent="1">
          <mxGeometry x="783.88" y="450" width="110" height="50" as="geometry" />
        </mxCell>
        <mxCell id="vCd6vIvfis11NrJTEesd-38" value="SpotifyPal&lt;br&gt;Service" style="html=1;whiteSpace=wrap;fontStyle=1" vertex="1" parent="1">
          <mxGeometry x="915" y="450" width="110" height="50" as="geometry" />
        </mxCell>
        <mxCell id="vCd6vIvfis11NrJTEesd-45" value="" style="endArrow=classic;startArrow=classic;html=1;rounded=0;" edge="1" parent="1">
          <mxGeometry width="50" height="50" relative="1" as="geometry">
            <mxPoint x="845" y="850" as="sourcePoint" />
            <mxPoint x="845" y="660" as="targetPoint" />
          </mxGeometry>
        </mxCell>
        <mxCell id="vCd6vIvfis11NrJTEesd-46" value="" style="endArrow=classic;startArrow=classic;html=1;rounded=0;exitX=0.69;exitY=-0.011;exitDx=0;exitDy=0;exitPerimeter=0;" edge="1" parent="1">
          <mxGeometry width="50" height="50" relative="1" as="geometry">
            <mxPoint x="872.0250000000001" y="848.9659999999999" as="sourcePoint" />
            <mxPoint x="969.5" y="660" as="targetPoint" />
            <Array as="points">
              <mxPoint x="875" y="740" />
            </Array>
          </mxGeometry>
        </mxCell>
        <mxCell id="vCd6vIvfis11NrJTEesd-47" value="&amp;nbsp;Model&amp;nbsp;&lt;br&gt;&amp;nbsp;Layer" style="shape=folder;fontStyle=1;spacingTop=10;tabWidth=40;tabHeight=14;tabPosition=left;html=1;whiteSpace=wrap;align=left;" vertex="1" parent="1">
          <mxGeometry x="705" y="1055" width="314" height="110" as="geometry" />
        </mxCell>
        <mxCell id="vCd6vIvfis11NrJTEesd-19" value="SavedTrack" style="whiteSpace=wrap;html=1;align=center;fontStyle=1" vertex="1" parent="1">
          <mxGeometry x="783.88" y="1090" width="100" height="40" as="geometry" />
        </mxCell>
        <mxCell id="vCd6vIvfis11NrJTEesd-20" value="SavedPlaylist" style="whiteSpace=wrap;html=1;align=center;fontStyle=1" vertex="1" parent="1">
          <mxGeometry x="893.88" y="1090" width="100" height="40" as="geometry" />
        </mxCell>
        <mxCell id="vCd6vIvfis11NrJTEesd-50" value="" style="endArrow=classic;html=1;rounded=0;entryX=0.5;entryY=1;entryDx=0;entryDy=0;" edge="1" parent="1" target="vCd6vIvfis11NrJTEesd-37">
          <mxGeometry width="50" height="50" relative="1" as="geometry">
            <mxPoint x="839.3299999999999" y="605" as="sourcePoint" />
            <mxPoint x="889.3299999999999" y="555" as="targetPoint" />
          </mxGeometry>
        </mxCell>
        <mxCell id="vCd6vIvfis11NrJTEesd-51" value="" style="endArrow=classic;html=1;rounded=0;exitX=0.75;exitY=0;exitDx=0;exitDy=0;" edge="1" parent="1" source="vCd6vIvfis11NrJTEesd-19">
          <mxGeometry width="50" height="50" relative="1" as="geometry">
            <mxPoint x="845" y="1090" as="sourcePoint" />
            <mxPoint x="858.6908808290154" y="944" as="targetPoint" />
          </mxGeometry>
        </mxCell>
        <mxCell id="vCd6vIvfis11NrJTEesd-52" value="" style="endArrow=classic;html=1;rounded=0;entryX=0.718;entryY=0.979;entryDx=0;entryDy=0;entryPerimeter=0;" edge="1" parent="1">
          <mxGeometry width="50" height="50" relative="1" as="geometry">
            <mxPoint x="905" y="1090" as="sourcePoint" />
            <mxPoint x="873.9990000000003" y="942.0260000000001" as="targetPoint" />
            <Array as="points">
              <mxPoint x="874" y="1030" />
            </Array>
          </mxGeometry>
        </mxCell>
        <mxCell id="vCd6vIvfis11NrJTEesd-53" value="API&amp;nbsp;&lt;br&gt;Layer&amp;nbsp;" style="shape=folder;fontStyle=1;spacingTop=10;tabWidth=40;tabHeight=14;tabPosition=left;html=1;whiteSpace=wrap;align=right;" vertex="1" parent="1">
          <mxGeometry x="655" y="230" width="390" height="130" as="geometry" />
        </mxCell>
        <mxCell id="vCd6vIvfis11NrJTEesd-55" value="User" style="html=1;whiteSpace=wrap;strokeColor=none;fillColor=#0079D6;labelPosition=center;verticalLabelPosition=middle;verticalAlign=top;align=center;fontSize=12;outlineConnect=0;spacingTop=-6;fontColor=#FFFFFF;sketch=0;shape=mxgraph.sitemap.user;" vertex="1" parent="1">
          <mxGeometry x="25" y="205" width="120" height="70" as="geometry" />
        </mxCell>
        <mxCell id="vCd6vIvfis11NrJTEesd-56" value="Authorization&lt;br&gt;Server" style="fontColor=#0066CC;verticalAlign=top;verticalLabelPosition=bottom;labelPosition=center;align=center;html=1;outlineConnect=0;fillColor=#CCCCCC;strokeColor=#6881B3;gradientColor=none;gradientDirection=north;strokeWidth=2;shape=mxgraph.networks.server;" vertex="1" parent="1">
          <mxGeometry x="265" y="190" width="90" height="100" as="geometry" />
        </mxCell>
        <mxCell id="vCd6vIvfis11NrJTEesd-57" value="" style="endArrow=classic;startArrow=classic;html=1;rounded=0;exitX=1;exitY=0.5;exitDx=0;exitDy=0;exitPerimeter=0;" edge="1" parent="1" source="vCd6vIvfis11NrJTEesd-55" target="vCd6vIvfis11NrJTEesd-56">
          <mxGeometry width="50" height="50" relative="1" as="geometry">
            <mxPoint x="145" y="170" as="sourcePoint" />
            <mxPoint x="255" y="200" as="targetPoint" />
          </mxGeometry>
        </mxCell>
        <mxCell id="vCd6vIvfis11NrJTEesd-58" value="Resource Server" style="verticalLabelPosition=bottom;html=1;verticalAlign=top;strokeWidth=1;align=center;outlineConnect=0;dashed=0;outlineConnect=0;shape=mxgraph.aws3d.dataServer;strokeColor=#5E5E5E;aspect=fixed;" vertex="1" parent="1">
          <mxGeometry x="248.5" y="410" width="123" height="106" as="geometry" />
        </mxCell>
        <mxCell id="vCd6vIvfis11NrJTEesd-62" value="" style="rounded=0;whiteSpace=wrap;html=1;fillColor=none;dashed=1;strokeColor=#82b366;strokeWidth=3;opacity=80;shadow=1;" vertex="1" parent="1">
          <mxGeometry x="556.38" y="130" width="535" height="610" as="geometry" />
        </mxCell>
        <mxCell id="vCd6vIvfis11NrJTEesd-59" value="" style="edgeStyle=elbowEdgeStyle;elbow=vertical;endArrow=classic;html=1;curved=0;rounded=0;endSize=8;startSize=8;" edge="1" parent="1">
          <mxGeometry width="50" height="50" relative="1" as="geometry">
            <mxPoint x="311.12" y="412" as="sourcePoint" />
            <mxPoint x="835.0000000000001" y="450" as="targetPoint" />
            <Array as="points">
              <mxPoint x="571.12" y="390" />
            </Array>
          </mxGeometry>
        </mxCell>
        <mxCell id="vCd6vIvfis11NrJTEesd-63" value="Spring Boot" style="shape=image;verticalLabelPosition=bottom;labelBackgroundColor=default;verticalAlign=top;aspect=fixed;imageAspect=0;image=data:image/svg+xml,PHN2ZyB4bWxuczp4bGluaz0iaHR0cDovL3d3dy53My5vcmcvMTk5OS94bGluayIgeG1sbnM9Imh0dHA6Ly93d3cudzMub3JnLzIwMDAvc3ZnIiBmaWxsLXJ1bGU9Im5vbnplcm8iIGhlaWdodD0iNDgwcHgiIHdpZHRoPSI0ODBweCIgdmlld0JveD0iMCwwLDI1NiwyNTYiPjxnIHN0eWxlPSJtaXgtYmxlbmQtbW9kZTogbm9ybWFsIiB0ZXh0LWFuY2hvcj0ibm9uZSIgZm9udC1zaXplPSJub25lIiBmb250LXdlaWdodD0ibm9uZSIgZm9udC1mYW1pbHk9Im5vbmUiIHN0cm9rZS1kYXNob2Zmc2V0PSIwIiBzdHJva2UtZGFzaGFycmF5PSIiIHN0cm9rZS1taXRlcmxpbWl0PSIxMCIgc3Ryb2tlLWxpbmVqb2luPSJtaXRlciIgc3Ryb2tlLWxpbmVjYXA9ImJ1dHQiIHN0cm9rZS13aWR0aD0iMSIgc3Ryb2tlPSJub25lIiBmaWxsLXJ1bGU9Im5vbnplcm8iIGZpbGw9Im5vbmUiPjxnIHRyYW5zZm9ybT0ic2NhbGUoMy4yLDMuMikiPjxwYXRoIGZpbGw9IiNmZmZmZmYiIGQ9Ik03Ny4yODYsMzQuNTExbC0xMy44OCwtMjQuMDRjLTEuOTYsLTMuMzkgLTUuNjEsLTUuNSAtOS41MywtNS41aC0yNy43NmMtMy45MiwwIC03LjU3LDIuMTEgLTkuNTMsNS41bC0xMy44OCwyNC4wNGMtMS45NiwzLjM5IC0xLjk2LDcuNjEgMCwxMWwxMy44OCwyNC4wNGMxLjk2LDMuNCA1LjYxLDUuNSA5LjUzLDUuNWgyNy43NmMzLjkyLDAgNy41NywtMi4xIDkuNTMsLTUuNWwxMy44OCwtMjQuMDRjMS45NiwtMy4zOSAxLjk2LC03LjYxIDAsLTExek01NC44NzYsNTMuNzYxYy0zLjU4LDMuOTcgLTguNDksNi4zMSAtMTMuODMsNi41OWMtMC4zNiwwLjAyIC0wLjcxLDAuMDMgLTEuMDcsMC4wM2MtNC45NSwwIC05LjY2LC0xLjggLTEzLjM3LC01LjE0Yy04LjIsLTcuMzggLTguODcsLTIwLjA2IC0xLjQ4LC0yOC4yN2MwLjU3LC0wLjYzIDEuMTgsLTEuMjMgMS44MywtMS43OGMxLjI1LC0xLjA4IDMuMTQsLTAuOTQgNC4yMywwLjMyYzEuMDgsMS4yNSAwLjkzLDMuMTUgLTAuMzMsNC4yM2MtMC40NCwwLjM4IC0wLjg3LDAuOCAtMS4yNywxLjI1Yy01LjE3LDUuNzQgLTQuNzEsMTQuNjIgMS4wNCwxOS43OWMyLjc4LDIuNTEgNi4zNiwzLjc4IDEwLjExLDMuNThjMy43NCwtMC4yIDcuMTgsLTEuODQgOS42OCwtNC42MmM1LjE3LC01Ljc0IDQuNywtMTQuNjIgLTEuMDQsLTE5Ljc5Yy0xLjIzLC0xLjExIC0xLjMzLC0zLjAxIC0wLjIyLC00LjI0YzEuMTEsLTEuMjMgMywtMS4zMyA0LjI0LC0wLjIyYzguMiw3LjM4IDguODYsMjAuMDYgMS40OCwyOC4yN3pNMzYuOTk2LDM4Ljk4MXYtMTYuOTZjMCwtMS42NiAxLjM1LC0zIDMsLTNjMS42NiwwIDMsMS4zNCAzLDN2MTYuOTZjMCwxLjY1IC0xLjM0LDMgLTMsM2MtMC44MiwwIC0xLjU4LC0wLjM0IC0yLjEyLC0wLjg4Yy0wLjU0LC0wLjU0IC0wLjg4LC0xLjMgLTAuODgsLTIuMTJ6TTUyLjExNiwxMjguNzIxbC02LjIsLTEwLjVjLTAuNTYsLTAuOTUgLTEuMzUsLTEuNzMgLTIuMjcsLTIuMjdsLTAuMTYsLTAuMjhoLTAuMzRjLTAuODcsLTAuNDIgLTEuODQsLTAuNjUgLTIuODMsLTAuNjVoLTEyLjYzYy0xLDAgLTEuOTYsMC4yMyAtMi44MywwLjY1aC0wLjQ0bC0wLjIyLDAuMzdjLTAuODUsMC41NCAtMS41OCwxLjI4IC0yLjExLDIuMThsLTYuMiwxMC41Yy0wLjU3LDAuOTcgLTAuODcsMi4wNCAtMC45LDMuMTJsLTAuMSwwLjE4bDAuMSwwLjE4YzAuMDMsMS4wOCAwLjMzLDIuMTUgMC45LDMuMTJsNi4yLDEwLjVjMC41MywwLjkgMS4yNiwxLjY0IDIuMTIsMi4xOGwwLjIxLDAuMzZoMC40MmMwLjg4LDAuNDMgMS44NCwwLjY2IDIuODUsMC42NmgxMi42M2MxLDAgMS45NywtMC4yMyAyLjg1LC0wLjY2aDAuMzJsMC4xNSwtMC4yNmMwLjkzLC0wLjU1IDEuNzIsLTEuMzIgMi4yOCwtMi4yOGw2LjIsLTEwLjVjMC42LC0xLjAyIDAuOSwtMi4xNiAwLjksLTMuM2MwLC0xLjE0IC0wLjMsLTIuMjggLTAuOSwtMy4zek0yOS42NzYsMTM3LjA5MWMyLjY2LDIuNCA2Ljc4LDIuMTggOS4xNywtMC40OGMyLjQsLTIuNjYgMi4xOCwtNi43OCAtMC40OCwtOS4xN2MtMC42MiwtMC41NiAtMC42NywtMS41MSAtMC4xMSwtMi4xMmMwLjU1LC0wLjYyIDEuNSwtMC42NyAyLjEyLC0wLjExYzMuODksMy41IDQuMiw5LjUyIDAuNywxMy40MWMtMS44NywyLjA4IC00LjQ2LDMuMTQgLTcuMDYsMy4xNGMtMi4yNywwIC00LjU0LC0wLjgxIC02LjM1LC0yLjQ0Yy0zLjg5LC0zLjUgLTQuMjEsLTkuNTIgLTAuNywtMTMuNDFjMC4yNywtMC4zIDAuNTYsLTAuNTkgMC44NiwtMC44NWMwLjYzLC0wLjU0IDEuNTgsLTAuNDYgMi4xMiwwLjE2YzAuNTQsMC42MyAwLjQ3LDEuNTggLTAuMTYsMi4xMmMtMC4yMSwwLjE4IC0wLjQxLDAuMzcgLTAuNiwwLjU4Yy0yLjM5LDIuNjYgLTIuMTcsNi43OCAwLjQ5LDkuMTd6TTMyLjUxNiwxMzAuNTIxdi03YzAsLTAuODMgMC42OCwtMS41IDEuNSwtMS41YzAuODMsMCAxLjUsMC42NyAxLjUsMS41djdjMCwwLjgzIC0wLjY3LDEuNSAtMS41LDEuNWMtMC44MiwwIC0xLjUsLTAuNjcgLTEuNSwtMS41ek00Ny4xNDYsMTk3LjQ4MWMtMC4wNywtMC43NyAtMC4zLC0xLjUyIC0wLjcsLTIuMjFsLTQuMzMsLTcuNWMtMC40LC0wLjcgLTAuOTQsLTEuMjggLTEuNTgsLTEuNzNsLTAuMywtMC41MmgtMC42Yy0wLjcxLC0wLjMzIC0xLjQ4LC0wLjUgLTIuMjgsLTAuNWgtOC42NmMtMC44LDAgLTEuNTcsMC4xNyAtMi4yOCwwLjVoLTAuNmwtMC4zLDAuNTJjLTAuNjQsMC40NSAtMS4xOCwxLjAzIC0xLjU4LDEuNzNsLTQuMzMsNy41Yy0wLjQsMC42OSAtMC42MywxLjQ0IC0wLjcsMi4yMWwtMC4zLDAuNTJsMC4yOSwwLjUxYzAuMDcsMC43OCAwLjMsMS41NiAwLjcxLDIuMjZsNC4zMyw3LjVjMC40MSwwLjcxIDAuOTcsMS4zMSAxLjYyLDEuNzZsMC4yNiwwLjQ1aDAuNTFjMC43MywwLjM1IDEuNTQsMC41NCAyLjM3LDAuNTRoOC42NmMwLjgzLDAgMS42NCwtMC4xOSAyLjM3LC0wLjU0aDAuNTFsMC4yNiwtMC40NWMwLjY1LC0wLjQ1IDEuMjEsLTEuMDUgMS42MiwtMS43Nmw0LjMzLC03LjVjMC40MSwtMC43IDAuNjQsLTEuNDggMC43MSwtMi4yNmwwLjI5LC0wLjUxek0zMC4wNTYsMjAxLjUzMWMxLjgyLDEuNjMgNC42MywxLjQ5IDYuMjYsLTAuMzNjMS42NCwtMS44MiAxLjQ5LC00LjYyIC0wLjMzLC02LjI2Yy0wLjQ2LC0wLjQyIC0wLjQ5LC0xLjEzIC0wLjA4LC0xLjU5YzAuNDIsLTAuNDYgMS4xMywtMC41IDEuNTksLTAuMDhjMi43NCwyLjQ2IDIuOTYsNi43IDAuNSw5LjQ0Yy0xLjIsMS4zMiAtMi44NCwyLjExIC00LjYyLDIuMmMtMC4xMiwwLjAxIC0wLjI0LDAuMDEgLTAuMzYsMC4wMWMtMS42NSwwIC0zLjIzLC0wLjYgLTQuNDYsLTEuNzJjLTEuMzMsLTEuMTkgLTIuMTEsLTIuODMgLTIuMjEsLTQuNjFjLTAuMDksLTEuNzkgMC41MiwtMy41IDEuNzEsLTQuODNjMC4xOSwtMC4yMSAwLjM5LC0wLjQxIDAuNjEsLTAuNTljMC40NywtMC40MSAxLjE4LC0wLjM1IDEuNTksMC4xMmMwLjQsMC40NyAwLjM1LDEuMTggLTAuMTIsMS41OGMtMC4xNSwwLjEzIC0wLjI4LDAuMjYgLTAuNDEsMC40Yy0wLjc5LDAuODggLTEuMTksMi4wMSAtMS4xMywzLjJjMC4wNiwxLjE4IDAuNTgsMi4yNyAxLjQ2LDMuMDZ6TTMxLjg5NiwxOTcuODcxdi01LjczYzAsLTAuNjIgMC41MSwtMS4xMiAxLjEzLC0xLjEyYzAuNjIsMCAxLjEyLDAuNSAxLjEyLDEuMTJ2NS43M2MwLDAuNjIgLTAuNSwxLjEzIC0xLjEyLDEuMTNjLTAuNjIsMCAtMS4xMywtMC41MSAtMS4xMywtMS4xM3pNMzkuNjU2LDI0MS42NTFjLTAuMDUsLTAuNDkgLTAuMjEsLTAuOTcgLTAuNDcsLTEuNDFsLTIuMDUsLTMuNDljLTAuMjYsLTAuNDMgLTAuNiwtMC44IC0xLjAxLC0xLjA4bC0wLjE4LC0wLjNoLTAuMzRjLTAuNDYsLTAuMjMgLTAuOTcsLTAuMzUgLTEuNDksLTAuMzVoLTQuMjJjLTAuNTIsMCAtMS4wMywwLjEyIC0xLjQ5LDAuMzVoLTAuMjZsLTAuMTMsMC4yMmMtMC40NiwwLjI4IC0wLjg1LDAuNjggLTEuMTMsMS4xNmwtMi4wNiwzLjQ5Yy0wLjI5LDAuNDkgLTAuNDUsMS4wMiAtMC40OCwxLjU3bC0wLjExLDAuMTlsMC4xMSwwLjE5YzAuMDIsMC41NiAwLjE4LDEuMTEgMC40OCwxLjYxbDIuMDYsMy40OWMwLjI5LDAuNDkgMC42OSwwLjkgMS4xNywxLjE5bDAuMDksMC4xNWgwLjE4YzAuNDgsMC4yNiAxLjAyLDAuMzkgMS41NywwLjM5aDQuMjJjMC41NiwwIDEuMSwtMC4xNCAxLjU4LC0wLjM5aDAuMjVsMC4xNCwtMC4yM2MwLjQyLC0wLjI4IDAuNzgsLTAuNjYgMS4wNSwtMS4xMWwyLjA1LC0zLjQ5YzAuMjcsLTAuNDUgMC40MywtMC45NSAwLjQ3LC0xLjQ2bDAuMiwtMC4zNHpNMzAuMzg2LDI0My45MTFjMC40OCwwLjQ0IDEuMDgsMC42NiAxLjc0LDAuNjJjMC42NCwtMC4wMyAxLjI0LC0wLjMyIDEuNjcsLTAuOGMwLjQzLC0wLjQ3IDAuNjUsLTEuMDkgMC42MiwtMS43NGMtMC4wNCwtMC42NCAtMC4zMiwtMS4yMyAtMC44LC0xLjY3Yy0wLjI1LC0wLjIyIC0wLjI3LC0wLjYgLTAuMDQsLTAuODRjMC4yMiwtMC4yNSAwLjYsLTAuMjcgMC44NCwtMC4wNWMwLjcyLDAuNjUgMS4xNCwxLjUzIDEuMTksMi41YzAuMDYsMC45NiAtMC4yNywxLjg5IC0wLjkyLDIuNjFjLTAuNjQsMC43MiAtMS41MywxLjE0IC0yLjUsMS4xOWgtMC4xOWMtMC44OSwwIC0xLjc1LC0wLjMyIC0yLjQxLC0wLjkyYy0wLjcyLC0wLjY1IC0xLjE1LC0xLjU0IC0xLjIsLTIuNWMtMC4wNSwtMC45NyAwLjI4LC0xLjg5IDAuOTMsLTIuNjFjMC4xLC0wLjExIDAuMjEsLTAuMjIgMC4zMiwtMC4zMmMwLjI1LC0wLjIyIDAuNjMsLTAuMTkgMC44NSwwLjA2YzAuMjIsMC4yNSAwLjE5LDAuNjMgLTAuMDYsMC44NGMtMC4wOCwwLjA3IC0wLjE1LDAuMTQgLTAuMjIsMC4yMmMtMC40MywwLjQ4IC0wLjY1LDEuMSAtMC42MiwxLjc0YzAuMDQsMC42NSAwLjMyLDEuMjQgMC44LDEuNjd6TTMxLjM5NiwyNDIuMDIxdi0yLjk1YzAsLTAuMzMgMC4yNywtMC42IDAuNiwtMC42YzAuMzQsMCAwLjYsMC4yNyAwLjYsMC42djIuOTVjMCwwLjMzIC0wLjI2LDAuNiAtMC42LDAuNmMtMC4zMywwIC0wLjYsLTAuMjcgLTAuNiwtMC42eiIvPjxwYXRoIGZpbGw9IiNiYWUwYmQiIGQ9Ik03Ni40MTYsMzUuMDExbC0xMy44OCwtMjQuMDRjLTEuNzgsLTMuMDkgLTUuMDksLTUgLTguNjYsLTVoLTI3Ljc2Yy0zLjU3LDAgLTYuODgsMS45MSAtOC42Niw1bC0xMy44OCwyNC4wNGMtMS43OSwzLjEgLTEuNzksNi45MSAwLDEwbDEzLjg4LDI0LjA0YzEuNzgsMy4xIDUuMDksNSA4LjY2LDVoMjcuNzZjMy41NywwIDYuODgsLTEuOSA4LjY2LC01bDEzLjg4LC0yNC4wNGMxLjc5LC0zLjA5IDEuNzksLTYuOSAwLC0xMHpNNTQuODc2LDUzLjc2MWMtMy41OCwzLjk3IC04LjQ5LDYuMzEgLTEzLjgzLDYuNTljLTAuMzYsMC4wMiAtMC43MSwwLjAzIC0xLjA3LDAuMDNjLTQuOTUsMCAtOS42NiwtMS44IC0xMy4zNywtNS4xNGMtOC4yLC03LjM4IC04Ljg3LC0yMC4wNiAtMS40OCwtMjguMjdjMC41NywtMC42MyAxLjE4LC0xLjIzIDEuODMsLTEuNzhjMS4yNSwtMS4wOCAzLjE0LC0wLjk0IDQuMjMsMC4zMmMxLjA4LDEuMjUgMC45MywzLjE1IC0wLjMzLDQuMjNjLTAuNDQsMC4zOCAtMC44NywwLjggLTEuMjcsMS4yNWMtNS4xNyw1Ljc0IC00LjcxLDE0LjYyIDEuMDQsMTkuNzljMi43OCwyLjUxIDYuMzYsMy43OCAxMC4xMSwzLjU4YzMuNzQsLTAuMiA3LjE4LC0xLjg0IDkuNjgsLTQuNjJjNS4xNywtNS43NCA0LjcsLTE0LjYyIC0xLjA0LC0xOS43OWMtMS4yMywtMS4xMSAtMS4zMywtMy4wMSAtMC4yMiwtNC4yNGMxLjExLC0xLjIzIDMsLTEuMzMgNC4yNCwtMC4yMmM4LjIsNy4zOCA4Ljg2LDIwLjA2IDEuNDgsMjguMjd6TTQyLjk5NiwyMi4wMjF2MTYuOTZjMCwxLjY1IC0xLjM0LDMgLTMsM2MtMC44MiwwIC0xLjU4LC0wLjM0IC0yLjEyLC0wLjg4Yy0wLjU0LC0wLjU0IC0wLjg4LC0xLjMgLTAuODgsLTIuMTJ2LTE2Ljk2YzAsLTEuNjYgMS4zNSwtMyAzLC0zYzEuNjYsMCAzLDEuMzQgMywzeiIvPjxwYXRoIGZpbGw9IiM1ZTljNzYiIGQ9Ik03Ny4yODYsMzQuNTExbC0xMy44OCwtMjQuMDRjLTEuOTYsLTMuMzkgLTUuNjEsLTUuNSAtOS41MywtNS41aC0yNy43NmMtMy45MiwwIC03LjU3LDIuMTEgLTkuNTMsNS41bC0xMy44OCwyNC4wNGMtMS45NiwzLjM5IC0xLjk2LDcuNjEgMCwxMWwxMy44OCwyNC4wNGMxLjk2LDMuNCA1LjYxLDUuNSA5LjUzLDUuNWgyNy43NmMzLjkyLDAgNy41NywtMi4xIDkuNTMsLTUuNWwxMy44OCwtMjQuMDRjMS45NiwtMy4zOSAxLjk2LC03LjYxIDAsLTExek01My44NzYsNzMuMDUxaC0yNy43NmMtMy4yMSwwIC02LjE5LC0xLjcyIC03LjgsLTQuNWwtMTMuODgsLTI0LjA0Yy0xLjYsLTIuNzcgLTEuNiwtNi4yMiAwLC05bDEzLjg4LC0yNC4wNGMxLjYxLC0yLjc4IDQuNTksLTQuNSA3LjgsLTQuNWgyNy43NmMzLjIxLDAgNi4xOSwxLjcyIDcuOCw0LjVsMTMuODgsMjQuMDRjMS42LDIuNzggMS42LDYuMjMgMCw5bC0xMy44OCwyNC4wNGMtMS42MSwyLjc4IC00LjU5LDQuNSAtNy44LDQuNXoiLz48L2c+PC9nPjwvc3ZnPg==;fontColor=#38571a;" vertex="1" parent="1">
          <mxGeometry x="995" y="55" width="150" height="150" as="geometry" />
        </mxCell>
        <mxCell id="vCd6vIvfis11NrJTEesd-64" value="" style="rounded=0;whiteSpace=wrap;html=1;fillColor=none;dashed=1;strokeColor=#00f900;strokeWidth=3;" vertex="1" parent="1">
          <mxGeometry x="185" y="110" width="250" height="470" as="geometry" />
        </mxCell>
        <mxCell id="vCd6vIvfis11NrJTEesd-65" value="" style="shape=image;verticalLabelPosition=bottom;labelBackgroundColor=default;verticalAlign=top;aspect=fixed;imageAspect=0;image=data:image/svg+xml,PHN2ZyB4bWxucz0iaHR0cDovL3d3dy53My5vcmcvMjAwMC9zdmciIHZpZXdCb3g9Ii0zMy40OTc0IC01NS44MjkgMjkwLjMxMDggMzM0Ljk3NCIgd2lkdGg9IjEyMDAiIGhlaWdodD0iODAwIj48cGF0aCBmaWxsPSIjMWVkNjYwIiBkPSJNMTc3LjcwNyA5OC45ODdjLTM1Ljk5Mi0yMS4zNzUtOTUuMzYtMjMuMzQtMTI5LjcxOS0xMi45MTItNS41MTkgMS42NzQtMTEuMzUzLTEuNDQtMTMuMDI0LTYuOTU4LTEuNjcyLTUuNTIxIDEuNDM5LTExLjM1MiA2Ljk2LTEzLjAyOSAzOS40NDMtMTEuOTcyIDEwNS4wMDgtOS42NiAxNDYuNDQzIDE0LjkzNiA0Ljk2NCAyLjk0NyA2LjU5IDkuMzU2IDMuNjQ5IDE0LjMxLTIuOTQ0IDQuOTYzLTkuMzU5IDYuNi0xNC4zMSAzLjY1M20tMS4xNzggMzEuNjU4Yy0yLjUyNSA0LjA5OC03Ljg4MyA1LjM4My0xMS45NzUgMi44NjctMzAuMDA1LTE4LjQ0NC03NS43NjItMjMuNzg4LTExMS4yNjItMTMuMDEyLTQuNjAzIDEuMzktOS40NjYtMS4yMDQtMTAuODY0LTUuOGE4LjcxNyA4LjcxNyAwIDAxNS44MDUtMTAuODU2YzQwLjU1My0xMi4zMDcgOTAuOTY4LTYuMzQ3IDEyNS40MzIgMTQuODMzIDQuMDkyIDIuNTIgNS4zOCA3Ljg4IDIuODY0IDExLjk2OG0tMTMuNjYzIDMwLjQwNGE2Ljk1NCA2Ljk1NCAwIDAxLTkuNTY5IDIuMzE2Yy0yNi4yMi0xNi4wMjUtNTkuMjIzLTE5LjY0NC05OC4wOS0xMC43NjZhNi45NTUgNi45NTUgMCAwMS04LjMzMS01LjIzMiA2Ljk1IDYuOTUgMCAwMTUuMjMzLTguMzM0YzQyLjUzMy05LjcyMiA3OS4wMTctNS41MzggMTA4LjQ0OCAxMi40NDZhNi45NiA2Ljk2IDAgMDEyLjMxIDkuNTdNMTExLjY1NiAwQzQ5Ljk5MiAwIDAgNDkuOTkgMCAxMTEuNjU2YzAgNjEuNjcyIDQ5Ljk5MiAxMTEuNjYgMTExLjY1NyAxMTEuNjYgNjEuNjY4IDAgMTExLjY1OS00OS45ODggMTExLjY1OS0xMTEuNjZDMjIzLjMxNiA0OS45OTEgMTczLjMyNiAwIDExMS42NTcgMCIvPjwvc3ZnPg==;" vertex="1" parent="1">
          <mxGeometry x="305" y="40" width="225" height="150" as="geometry" />
        </mxCell>
        <mxCell id="vCd6vIvfis11NrJTEesd-66" value="" style="endArrow=classic;html=1;rounded=0;entryX=0.137;entryY=-0.02;entryDx=0;entryDy=0;exitX=0.75;exitY=1;exitDx=0;exitDy=0;entryPerimeter=0;" edge="1" parent="1" source="vCd6vIvfis11NrJTEesd-67" target="vCd6vIvfis11NrJTEesd-37">
          <mxGeometry width="50" height="50" relative="1" as="geometry">
            <mxPoint x="785" y="320" as="sourcePoint" />
            <mxPoint x="862" y="440" as="targetPoint" />
          </mxGeometry>
        </mxCell>
        <mxCell id="vCd6vIvfis11NrJTEesd-67" value="&lt;p style=&quot;margin:0px;margin-top:4px;text-align:center;&quot;&gt;&lt;br&gt;&lt;b&gt;SpotifyPal&amp;nbsp;&lt;/b&gt;&lt;/p&gt;&lt;p style=&quot;margin:0px;margin-top:4px;text-align:center;&quot;&gt;&lt;b&gt;Controller&lt;/b&gt;&lt;/p&gt;" style="verticalAlign=top;align=left;overflow=fill;fontSize=12;fontFamily=Helvetica;html=1;whiteSpace=wrap;" vertex="1" parent="1">
          <mxGeometry x="675" y="265" width="140" height="60" as="geometry" />
        </mxCell>
        <mxCell id="vCd6vIvfis11NrJTEesd-69" value="&lt;p style=&quot;margin:0px;margin-top:4px;text-align:center;&quot;&gt;&lt;br&gt;&lt;b&gt;Main&lt;/b&gt;&lt;/p&gt;" style="verticalAlign=top;align=left;overflow=fill;fontSize=12;fontFamily=Helvetica;html=1;whiteSpace=wrap;" vertex="1" parent="1">
          <mxGeometry x="834.31" y="265" width="140" height="60" as="geometry" />
        </mxCell>
        <mxCell id="vCd6vIvfis11NrJTEesd-70" value="" style="endArrow=classic;html=1;rounded=0;entryX=0.68;entryY=0.277;entryDx=0;entryDy=0;entryPerimeter=0;" edge="1" parent="1" target="vCd6vIvfis11NrJTEesd-64">
          <mxGeometry width="50" height="50" relative="1" as="geometry">
            <mxPoint x="556.38" y="240" as="sourcePoint" />
            <mxPoint x="466.38" y="220" as="targetPoint" />
          </mxGeometry>
        </mxCell>
        <mxCell id="vCd6vIvfis11NrJTEesd-72" value="" style="edgeStyle=segmentEdgeStyle;endArrow=classic;html=1;curved=0;rounded=0;endSize=8;startSize=8;entryX=-0.008;entryY=0.472;entryDx=0;entryDy=0;entryPerimeter=0;" edge="1" parent="1" target="vCd6vIvfis11NrJTEesd-62">
          <mxGeometry width="50" height="50" relative="1" as="geometry">
            <mxPoint x="85" y="280" as="sourcePoint" />
            <mxPoint x="355" y="720" as="targetPoint" />
            <Array as="points">
              <mxPoint x="85" y="630" />
            </Array>
          </mxGeometry>
        </mxCell>
        <mxCell id="vCd6vIvfis11NrJTEesd-73" value="Backend" style="text;html=1;strokeColor=none;fillColor=none;align=center;verticalAlign=middle;whiteSpace=wrap;rounded=0;fontSize=17;" vertex="1" parent="1">
          <mxGeometry x="575" y="110" width="80" height="35" as="geometry" />
        </mxCell>
        <mxCell id="vCd6vIvfis11NrJTEesd-74" value="Spotify Web API" style="text;html=1;strokeColor=none;fillColor=none;align=center;verticalAlign=middle;whiteSpace=wrap;rounded=0;fontSize=17;" vertex="1" parent="1">
          <mxGeometry x="205" y="90" width="80" height="35" as="geometry" />
        </mxCell>
        <mxCell id="vCd6vIvfis11NrJTEesd-75" value="Spring Data JPA" style="text;html=1;strokeColor=none;fillColor=none;align=center;verticalAlign=middle;whiteSpace=wrap;rounded=0;fontColor=#38571a;" vertex="1" parent="1">
          <mxGeometry x="893.88" y="730.6700000000001" width="60" height="30" as="geometry" />
        </mxCell>
        <mxCell id="vCd6vIvfis11NrJTEesd-76" value="Spring Data JPA" style="text;html=1;strokeColor=none;fillColor=none;align=center;verticalAlign=middle;whiteSpace=wrap;rounded=0;fontColor=#38571a;" vertex="1" parent="1">
          <mxGeometry x="900" y="1000" width="60" height="30" as="geometry" />
        </mxCell>
        <mxCell id="vCd6vIvfis11NrJTEesd-77" value="Spring Security" style="shape=image;verticalLabelPosition=bottom;labelBackgroundColor=default;verticalAlign=top;aspect=fixed;imageAspect=0;image=data:image/svg+xml,PHN2ZyB4bWxucz0iaHR0cDovL3d3dy53My5vcmcvMjAwMC9zdmciIHZpZXdCb3g9IjAgMCAyNCAyNCIgcm9sZT0iaW1nIiBzdHlsZT0iY29sb3I6IHJnYigxMDIsIDE1NiwgNTMpOyI+PHRpdGxlPlNwcmluZyBTZWN1cml0eTwvdGl0bGU+PHBhdGggZmlsbD0iIzY2OWMzNSIgZD0iTTIwLjU5IDIuMDY2IDExLjk5MyAwIDMuNDEgMi4wNjZ2Ni42MTJoNC41NTdhMy44MDQgMy44MDQgMCAwIDAgMCAuOTU0SDMuNDF2My4xMDZDMy40MSAxOS44NjcgMTEuOTk0IDI0IDExLjk5NCAyNHM4LjU4Mi00LjEzMyA4LjU4Mi0xMS4yNThWOS42MzVoLTQuNTQ1YTMuNjE2IDMuNjE2IDAgMCAwIDAtLjk1NGg0LjU1OHpNMTIgMTIuMjYyaC0uMDA2YTMuMTA5IDMuMTA5IDAgMSAxIC4wMDYgMHptLS4wMDYtNC41NzlhLjgwNC44MDQgMCAwIDAtLjM3IDEuNTJ2LjIwOGwuMjM4LjIzN3YuMTU5bC4xNTkuMTU5di4xNTlsLS4xNC4xNC4xNS4yNDZ2LjE1OWwtLjE2LjE4OS4yMjMuMjIyLjI0Ni0uMjQ2VjkuMjE4YS44MDQuODA0IDAgMCAwLS4zNDYtMS41MzV6bTAgLjgzNmEuMjk5LjI5OSAwIDEgMSAuMjk4LS4yOTkuMjk5LjI5OSAwIDAgMS0uMjk4LjN6Ii8+PC9zdmc+;fontColor=#4f7a28;" vertex="1" parent="1">
          <mxGeometry x="41" y="560" width="90" height="90" as="geometry" />
        </mxCell>
        <mxCell id="vCd6vIvfis11NrJTEesd-78" value="Spring Security" style="shape=image;verticalLabelPosition=bottom;labelBackgroundColor=default;verticalAlign=top;aspect=fixed;imageAspect=0;image=data:image/svg+xml,PHN2ZyB4bWxucz0iaHR0cDovL3d3dy53My5vcmcvMjAwMC9zdmciIHZpZXdCb3g9IjAgMCAyNCAyNCIgcm9sZT0iaW1nIiBzdHlsZT0iY29sb3I6IHJnYigxMDIsIDE1NiwgNTMpOyI+PHRpdGxlPlNwcmluZyBTZWN1cml0eTwvdGl0bGU+PHBhdGggZmlsbD0iIzY2OWMzNSIgZD0iTTIwLjU5IDIuMDY2IDExLjk5MyAwIDMuNDEgMi4wNjZ2Ni42MTJoNC41NTdhMy44MDQgMy44MDQgMCAwIDAgMCAuOTU0SDMuNDF2My4xMDZDMy40MSAxOS44NjcgMTEuOTk0IDI0IDExLjk5NCAyNHM4LjU4Mi00LjEzMyA4LjU4Mi0xMS4yNThWOS42MzVoLTQuNTQ1YTMuNjE2IDMuNjE2IDAgMCAwIDAtLjk1NGg0LjU1OHpNMTIgMTIuMjYyaC0uMDA2YTMuMTA5IDMuMTA5IDAgMSAxIC4wMDYgMHptLS4wMDYtNC41NzlhLjgwNC44MDQgMCAwIDAtLjM3IDEuNTJ2LjIwOGwuMjM4LjIzN3YuMTU5bC4xNTkuMTU5di4xNTlsLS4xNC4xNC4xNS4yNDZ2LjE1OWwtLjE2LjE4OS4yMjMuMjIyLjI0Ni0uMjQ2VjkuMjE4YS44MDQuODA0IDAgMCAwLS4zNDYtMS41MzV6bTAgLjgzNmEuMjk5LjI5OSAwIDEgMSAuMjk4LS4yOTkuMjk5LjI5OSAwIDAgMS0uMjk4LjN6Ii8+PC9zdmc+;fontColor=#4f7a28;" vertex="1" parent="1">
          <mxGeometry x="440" y="205" width="90" height="90" as="geometry" />
        </mxCell>
      </root>
    </mxGraphModel>
  </diagram>
</mxfile>
